<?xml version="1.0" standalone="no"?>
<!DOCTYPE svg PUBLIC "-//W3C//DTD SVG 20010904//EN"
 "http://www.w3.org/TR/2001/REC-SVG-20010904/DTD/svg10.dtd">
<svg version="1.0" xmlns="http://www.w3.org/2000/svg"
 width="1280.000000pt" height="1280.000000pt" viewBox="0 0 1280.000000 1280.000000"
 preserveAspectRatio="xMidYMid meet">
<metadata>
Created by potrace 1.11, written by Peter Selinger 2001-2013
</metadata>
<g transform="translate(0.000000,1280.000000) scale(0.100000,-0.100000)"
fill="#000000" stroke="none">
<path d="M0 6395 l0 -5085 6400 0 6400 0 0 5085 0 5085 -6400 0 -6400 0 0
-5085z m4040 4340 c0 -8 5 -15 10 -15 7 0 10 -62 10 -177 -1 -173 3 -213 21
-213 5 0 9 -7 9 -15 0 -11 11 -15 40 -15 22 0 40 -4 40 -10 0 -5 -18 -10 -39
-10 -22 0 -43 -4 -46 -10 -3 -5 -15 -10 -26 -10 -10 0 -19 -6 -19 -14 0 -8
-15 -17 -35 -20 -19 -4 -35 -11 -35 -16 0 -6 -9 -10 -19 -10 -10 0 -21 -7 -25
-15 -3 -8 -15 -15 -26 -15 -11 0 -20 -4 -20 -10 0 -5 -9 -10 -20 -10 -11 0
-20 -4 -20 -10 0 -5 -9 -10 -20 -10 -12 0 -32 -10 -45 -22 -46 -43 -54 -48
-85 -48 -16 0 -30 -4 -30 -10 0 -5 -13 -10 -30 -10 -16 0 -30 -4 -30 -10 0 -5
-9 -10 -21 -10 -11 0 -27 -7 -35 -15 -9 -8 -26 -15 -40 -15 -13 0 -24 -4 -24
-10 0 -5 -13 -10 -30 -10 -16 0 -30 -3 -30 -6 0 -14 36 -33 61 -34 15 0 32 -7
39 -15 7 -8 25 -15 41 -15 16 0 29 -4 29 -9 0 -5 30 -12 67 -16 36 -4 73 -13
80 -21 8 -8 23 -14 34 -14 12 0 19 -7 19 -18 0 -10 17 -30 37 -43 39 -26 45
-34 68 -92 l16 -38 28 21 c16 11 34 20 40 20 6 0 11 4 11 9 0 5 7 11 15 13 8
2 58 39 111 83 l95 80 -155 3 -156 3 0 24 c0 14 4 25 9 25 5 0 13 9 16 20 3
11 15 20 26 20 10 0 19 5 19 10 0 6 11 15 25 20 14 5 25 14 25 20 0 18 27 40
48 40 20 0 32 18 32 46 0 17 56 75 64 66 3 -3 6 2 6 11 0 13 10 17 44 17 26 0
47 5 50 13 5 10 7 10 12 0 3 -7 21 -13 40 -13 19 0 34 -4 34 -10 0 -5 8 -10
18 -10 9 0 31 -16 47 -35 27 -31 35 -35 82 -35 29 0 52 -4 50 -9 -1 -5 0 -9 3
-8 3 0 14 -4 25 -10 16 -8 29 -5 60 14 113 67 507 243 545 243 6 0 10 -7 10
-15 0 -21 27 -30 53 -17 12 6 31 12 42 14 13 2 21 12 23 31 4 37 28 46 165 64
20 3 40 9 43 14 3 5 25 9 49 9 24 0 47 5 50 10 3 6 21 10 40 10 19 0 45 4 59
10 27 10 125 26 261 42 91 10 502 19 440 9 l-40 -6 -3 -87 -3 -88 -27 -1 c-34
0 -115 -33 -120 -48 -3 -8 48 -11 182 -11 170 0 208 -5 176 -25 -6 -4 -10 -61
-10 -140 0 -147 -1 -145 66 -145 40 0 42 -3 48 -93 7 -113 13 -108 -123 -101
-64 3 -118 8 -121 11 -3 3 48 3 113 1 64 -1 117 1 117 6 0 12 -886 0 -1060
-13 -426 -34 -528 -44 -650 -61 -266 -39 -377 -62 -490 -102 -90 -32 -115 -45
-65 -34 28 7 29 6 10 -7 -11 -8 -30 -17 -42 -21 -13 -4 -23 -12 -23 -17 0 -6
4 -8 8 -5 18 11 67 -10 67 -30 0 -23 -17 -44 -29 -37 -5 3 -6 0 -4 -8 3 -8 16
-13 29 -11 19 2 21 0 9 -8 -13 -9 -13 -10 0 -11 8 0 -3 -6 -25 -14 -54 -17
-34 -18 40 -1 151 35 567 80 945 102 335 20 1310 31 1310 16 0 -6 -4 -22 -9
-35 l-9 -24 -464 -6 c-833 -10 -1533 -56 -1814 -120 -57 -13 -58 -14 -75 -61
-9 -26 -19 -47 -22 -47 -29 3 -26 -3 8 -19 54 -27 85 -67 85 -110 l0 -35 69 0
c68 0 69 0 80 32 23 62 123 111 202 98 37 -6 38 -6 63 43 58 114 131 162 249
162 57 0 77 -5 125 -31 63 -34 122 -93 153 -153 l21 -39 291 7 c161 4 304 3
319 -1 46 -13 18 -34 -52 -39 -35 -2 -70 -10 -77 -16 -9 -7 -98 -13 -247 -16
l-234 -5 -6 -41 c-3 -23 -9 -51 -12 -63 -6 -21 -3 -23 27 -23 40 -1 65 -17 78
-53 10 -24 15 -27 61 -27 64 0 106 -34 97 -79 -6 -27 -4 -29 36 -36 23 -4 53
-6 67 -5 73 4 245 -2 259 -10 12 -6 20 -3 29 11 7 10 19 19 27 19 8 0 15 9 15
20 0 17 -3 19 -19 10 -26 -14 -31 -13 -31 5 0 9 12 21 28 27 25 12 22 13 -42
18 -71 5 -77 17 -16 35 14 4 39 22 57 41 24 26 40 34 66 34 24 0 41 8 62 30
35 36 71 45 124 29 38 -11 43 -11 61 9 11 12 20 26 20 32 0 5 9 10 20 10 11 0
20 4 20 9 0 14 54 23 94 16 39 -8 93 -56 102 -92 4 -13 12 -23 20 -23 13 0 77
51 101 80 7 8 13 11 13 6 0 -5 8 -2 18 6 9 9 33 18 54 22 35 6 48 21 48 55 0
20 55 82 87 99 12 7 37 12 56 12 39 0 52 12 61 57 4 17 14 37 22 44 8 6 14 17
14 23 0 18 91 106 116 112 13 3 24 12 24 20 0 8 9 14 20 14 11 0 20 3 20 8 0
20 91 37 207 37 121 0 123 0 123 -22 0 -22 4 -23 85 -23 69 0 85 3 85 15 0 8
-4 15 -10 15 -5 0 -10 9 -10 20 0 13 -7 20 -20 20 -11 0 -20 5 -20 10 0 6 -13
10 -30 10 -17 0 -31 6 -31 13 -3 34 5 54 32 80 23 21 39 27 73 27 43 0 43 0
56 48 7 26 21 56 31 68 11 11 19 23 19 27 0 11 33 40 68 60 30 17 31 17 42 -4
7 -13 10 -49 8 -89 -4 -59 -3 -67 11 -63 9 3 6 -2 -7 -11 -13 -10 -19 -22 -15
-29 11 -18 11 -90 0 -104 -5 -8 -6 -13 0 -13 5 0 9 -9 10 -20 1 -11 -3 -20 -8
-20 -6 0 -6 -7 0 -18 7 -13 6 -23 -1 -30 -8 -8 -8 -12 -1 -12 11 0 11 -99 0
-118 -4 -6 -3 -13 2 -16 4 -3 8 -22 8 -43 -1 -20 4 -38 11 -41 8 -2 12 12 12
47 0 44 3 51 20 51 17 0 20 -7 20 -50 0 -27 5 -50 10 -50 6 0 10 118 10 335 0
217 -4 335 -10 335 -5 0 -10 -16 -10 -35 0 -28 -4 -35 -20 -35 -17 0 -20 7
-20 46 l0 46 -35 -4 c-19 -2 -35 0 -35 4 0 13 -32 44 -54 52 -10 3 -207 6
-436 6 -369 0 -419 2 -424 16 -16 41 64 140 118 146 19 2 30 9 32 21 6 42 33
67 74 67 34 0 41 4 46 25 4 14 5 28 3 30 -5 4 -365 -111 -399 -129 l-25 -12 0
124 0 124 55 -6 c30 -3 91 -12 135 -20 44 -8 96 -18 115 -21 19 -3 61 -11 92
-17 48 -9 59 -8 72 5 9 9 16 21 16 27 0 6 5 8 10 5 6 -3 10 1 10 9 0 10 9 16
25 16 14 0 25 5 25 10 0 6 40 10 100 10 60 0 100 -4 100 -10 0 -5 9 -10 20
-10 11 0 20 -4 20 -10 0 -5 7 -10 15 -10 9 0 12 -6 9 -15 -4 -8 -1 -15 6 -15
16 0 40 -26 40 -44 0 -9 5 -16 10 -16 6 0 10 5 10 10 0 6 13 10 29 10 17 0 33
5 36 10 8 13 115 13 115 1 0 -6 15 -11 33 -13 l32 -3 6 -80 c4 -55 6 -65 7
-32 2 34 6 47 17 47 8 0 15 -4 15 -8 0 -4 23 -9 52 -10 29 -1 59 -9 68 -17 9
-8 22 -15 28 -15 7 0 12 -9 12 -20 0 -11 5 -20 10 -20 6 0 10 -6 10 -14 0 -10
17 -17 55 -21 30 -4 55 -11 55 -16 0 -5 6 -9 14 -9 14 0 26 -29 26 -67 0 -16
-8 -23 -32 -29 -18 -4 -27 -9 -20 -11 14 -5 17 -53 3 -53 -5 0 -11 3 -13 8 -9
21 -94 52 -144 52 -47 0 -54 -2 -54 -20 0 -18 7 -20 55 -20 30 0 55 -4 55 -8
0 -4 14 -9 31 -10 28 -2 38 -7 74 -39 7 -7 18 -13 24 -13 6 0 11 -4 11 -8 0
-11 35 -52 44 -52 3 0 6 13 6 29 0 17 5 33 11 37 6 3 9 14 6 23 -8 32 18 41
127 41 112 0 116 -2 116 -56 0 -14 5 -34 11 -45 7 -15 7 -24 -2 -35 -7 -9 -8
-14 -1 -14 6 0 17 -6 24 -13 7 -8 26 -17 41 -21 25 -6 27 -4 27 23 0 16 4 31
9 33 5 2 10 98 12 213 2 116 5 215 7 221 2 7 12 9 23 7 19 -5 20 -1 18 106 -1
61 -5 113 -9 116 -4 2 -8 27 -9 55 l-1 50 85 0 85 0 0 -32 c1 -85 12 -204 21
-219 5 -10 9 -61 9 -113 0 -57 4 -96 10 -96 6 0 10 5 10 10 0 6 9 10 20 10 11
0 20 5 20 10 0 6 30 10 71 10 44 0 68 -4 64 -10 -3 -6 4 -10 17 -10 13 0 30
-9 38 -20 8 -11 20 -20 27 -20 7 0 13 -4 13 -10 0 -5 14 -10 30 -10 17 0 30 5
30 10 0 6 13 10 29 10 17 0 33 -4 36 -10 3 -5 13 -10 21 -10 18 0 44 -24 44
-39 0 -6 7 -11 15 -11 8 0 15 -5 15 -10 0 -6 6 -10 13 -9 6 1 30 1 53 0 36 -1
42 -4 54 -36 11 -28 19 -35 42 -35 32 0 88 -47 88 -74 0 -14 -26 -16 -269 -16
-197 0 -270 3 -273 12 -4 11 -194 30 -210 21 -12 -7 -10 -983 2 -983 6 0 10
-43 10 -109 l0 -109 -145 -1 -145 -1 0 265 c0 175 3 264 10 260 7 -4 10 53 10
164 l0 171 -44 0 c-34 0 -46 -4 -49 -17 -3 -10 -5 -193 -5 -408 0 -214 -1
-400 -1 -412 -1 -22 -4 -23 -116 -23 l-115 0 0 520 c0 340 -3 520 -10 520 -5
0 -10 -4 -10 -10 0 -5 -11 -10 -25 -10 -14 0 -25 -4 -25 -10 0 -5 -9 -10 -19
-10 -11 0 -26 -7 -35 -15 -8 -8 -24 -15 -35 -15 -12 0 -21 -4 -21 -10 0 -5 -9
-10 -20 -10 -11 0 -20 -4 -20 -10 0 -5 -11 -10 -25 -10 l-25 0 0 -290 0 -290
-70 0 c-57 0 -72 -3 -77 -17 -4 -9 -1 -19 5 -21 9 -3 12 -48 12 -158 l0 -154
-65 0 c-72 0 -68 -4 -65 80 1 25 6 47 11 48 5 2 9 24 9 48 0 24 5 44 10 44 6
0 10 10 10 23 0 12 7 33 16 45 17 24 16 63 -2 69 -21 7 -54 -34 -54 -66 0 -17
-3 -31 -8 -31 -8 0 -30 -59 -39 -102 -3 -16 -9 -28 -14 -28 -5 0 -9 -11 -9
-25 0 -14 -4 -25 -10 -25 -5 0 -10 -12 -10 -26 0 -52 -11 -54 -240 -54 -138 0
-209 -3 -205 -10 3 -5 -1 -10 -9 -10 -9 0 -16 -9 -16 -20 0 -19 12 -19 845
-19 760 0 845 1 845 15 0 9 14 29 30 44 17 15 30 35 30 44 0 10 9 16 25 16 14
0 25 5 25 10 0 6 9 10 20 10 20 0 20 7 20 269 l0 270 23 3 c20 3 22 9 23 63 1
79 2 85 14 85 6 0 10 -37 10 -90 0 -77 3 -93 20 -110 11 -11 27 -20 35 -20 13
0 15 -37 15 -275 0 -177 4 -275 10 -275 6 0 10 -8 10 -18 0 -10 12 -25 26 -33
24 -12 28 -12 44 9 10 12 23 22 29 22 6 0 11 5 11 10 0 6 9 10 21 10 18 0 20
5 18 53 -1 28 -7 61 -12 72 -7 13 -6 20 2 23 7 2 11 50 11 152 0 147 -7 177
-33 151 -6 -6 -19 -11 -29 -11 -10 0 -18 -4 -18 -10 0 -5 -4 -10 -10 -10 -6 0
-10 52 -10 135 0 128 1 135 20 135 11 0 20 -4 20 -10 0 -5 9 -10 20 -10 11 0
20 -7 20 -15 0 -8 9 -15 20 -15 11 0 20 -4 20 -10 0 -5 5 -10 11 -10 16 0 39
-26 39 -45 0 -23 24 -45 49 -45 12 0 21 -4 21 -10 0 -5 7 -10 15 -10 18 0 37
-34 29 -54 -4 -11 -1 -16 11 -16 9 0 13 -4 10 -10 -4 -6 5 -10 19 -10 16 0 26
-6 26 -15 0 -8 5 -15 10 -15 13 0 50 -37 50 -50 0 -5 7 -10 15 -10 8 0 15 -7
15 -16 0 -29 27 -44 79 -44 39 0 51 -4 51 -15 0 -8 9 -15 20 -15 25 0 70 -42
70 -65 0 -9 7 -23 16 -32 8 -9 14 -25 12 -37 -3 -21 -7 -21 -215 -24 -205 -2
-213 -3 -213 -22 0 -11 5 -20 10 -20 6 0 10 -12 10 -26 0 -27 -36 -68 -51 -58
-5 3 -9 -2 -9 -10 0 -9 -6 -16 -13 -16 -7 0 -19 -9 -27 -20 -8 -11 -23 -20
-33 -20 -10 0 -24 -6 -31 -12 -33 -32 -67 -58 -75 -58 -11 0 -21 -25 -21 -51
0 -10 -4 -19 -9 -19 -5 0 -13 -9 -16 -20 -3 -11 -15 -20 -26 -20 -14 0 -19 -7
-19 -30 0 -16 -4 -30 -10 -30 -5 0 -10 -9 -10 -21 0 -11 -7 -27 -15 -35 -15
-15 -10 -76 7 -82 4 -2 8 -15 8 -28 0 -19 -5 -24 -25 -24 -14 0 -25 -4 -25
-10 0 -16 -147 -12 -180 5 -26 13 -29 19 -23 48 3 17 10 34 15 35 9 4 11 42 3
42 -3 0 -17 -10 -30 -22 -40 -38 -54 -48 -65 -48 -5 0 -10 -3 -10 -8 0 -4 -13
-13 -30 -20 -16 -8 -30 -20 -30 -28 0 -8 -7 -14 -15 -14 -8 0 -15 -4 -15 -10
0 -5 -8 -10 -18 -10 -10 0 -24 -9 -32 -20 -8 -11 -20 -20 -27 -20 -7 0 -23
-11 -37 -25 -14 -14 -30 -25 -36 -25 -5 0 -10 -4 -10 -10 0 -5 -6 -10 -14 -10
-8 0 -17 -6 -20 -12 -3 -9 -9 -7 -20 7 -14 17 -14 20 -1 27 12 8 12 11 -3 27
-26 27 -47 62 -45 72 2 5 -2 9 -7 9 -6 0 -10 7 -10 16 0 8 -4 12 -10 9 -5 -3
-10 1 -10 9 0 10 -9 16 -25 16 -14 0 -25 5 -25 10 0 6 -9 10 -20 10 -11 0 -20
5 -20 10 0 6 -37 10 -90 10 -53 0 -90 -4 -90 -10 0 -5 -11 -10 -25 -10 -14 0
-25 -4 -25 -10 0 -5 -9 -10 -20 -10 -11 0 -20 -7 -20 -15 0 -8 -4 -15 -10 -15
-5 0 -10 -9 -10 -20 0 -11 -3 -20 -7 -20 -5 0 -16 -14 -25 -31 -19 -33 -25
-172 -9 -197 10 -16 21 16 21 61 0 31 30 71 38 49 2 -6 19 -12 38 -12 19 0 34
-4 34 -10 0 -5 25 -10 55 -10 30 0 55 4 55 9 0 5 15 11 33 14 75 13 97 20 97
28 0 5 16 9 35 9 24 0 35 -5 35 -15 0 -8 5 -15 10 -15 6 0 10 -22 10 -50 l0
-50 41 0 42 0 -7 -51 c-8 -60 -14 -67 -81 -97 -27 -12 -45 -22 -40 -22 6 0 3
-4 -5 -10 -17 -10 -40 5 -40 26 0 8 -10 14 -25 14 -16 0 -25 6 -25 15 0 8 -4
15 -10 15 -5 0 -10 -4 -10 -10 0 -5 -4 -10 -10 -10 -5 0 -10 8 -10 18 0 11 -7
18 -20 18 -11 0 -20 -5 -20 -11 0 -5 -5 -3 -10 5 -9 13 -10 13 -10 0 0 -13 -1
-13 -11 0 -8 11 -12 12 -16 3 -2 -7 -14 -13 -24 -13 -11 0 -18 -4 -15 -8 3 -5
-4 -16 -15 -25 -13 -12 -19 -13 -20 -4 0 9 -2 9 -6 0 -2 -7 -20 -13 -39 -13
-27 0 -34 -4 -34 -20 0 -11 5 -20 10 -20 25 0 8 -38 -22 -51 -18 -7 -40 -20
-48 -29 -8 -9 -30 -25 -47 -35 -18 -11 -33 -23 -33 -27 0 -4 -9 -8 -19 -8 -11
0 -21 -6 -24 -12 -2 -7 -12 3 -22 22 -37 73 -157 242 -238 337 -156 182 -418
383 -604 464 -18 8 -33 17 -33 21 0 5 110 8 245 8 l245 0 60 59 c33 32 60 64
60 70 0 7 5 9 10 6 6 -3 10 -1 10 4 0 7 -58 11 -175 11 -110 0 -175 -4 -175
-10 0 -6 -28 -10 -65 -10 -63 0 -65 1 -65 25 0 25 -1 25 -90 25 l-90 0 0 35
c0 27 -4 35 -18 35 -28 0 -34 11 -14 26 15 12 9 13 -41 14 -41 0 -63 -5 -75
-16 -15 -15 -14 -16 5 -10 12 4 24 2 28 -4 4 -6 -6 -10 -25 -10 -27 0 -30 3
-25 20 5 16 2 20 -14 20 -12 0 -21 5 -21 10 0 6 -37 10 -90 10 l-90 0 0 -35 0
-35 90 0 90 0 0 -45 0 -45 -57 -1 c-32 -1 -73 -1 -90 -1 -18 0 -33 -4 -33 -9
0 -4 -15 -10 -32 -12 -28 -3 -26 -4 12 -6 25 -1 61 -9 80 -16 30 -12 -21 -13
-375 -13 -225 0 -402 2 -392 5 9 2 17 11 17 19 0 8 -8 14 -17 14 -12 0 -14 -3
-6 -8 6 -4 -39 -8 -100 -9 -77 -1 -114 2 -120 10 -7 9 -10 9 -14 0 -3 -9 -28
-13 -74 -13 -63 0 -69 -2 -69 -21 0 -22 22 -49 39 -49 6 0 11 -4 11 -10 0 -5
15 -10 32 -10 27 0 9 -12 -97 -65 -274 -138 -533 -363 -701 -610 -57 -84 -62
-89 -97 -85 -10 1 -24 -4 -32 -10 -16 -13 -13 -59 6 -70 10 -7 1 -33 -39 -118
-110 -232 -192 -562 -192 -776 0 -105 0 -106 -76 -106 -36 0 -64 -4 -64 -10 0
-6 -31 -10 -74 -10 -41 0 -78 -4 -81 -10 -4 -6 47 -10 144 -10 l151 0 0 -35 0
-35 -338 0 -339 0 -13 -26 c-18 -32 -3 -44 58 -44 24 0 52 -5 63 -11 13 -7 24
-7 32 -1 17 14 227 16 227 2 0 -12 43 -14 54 -2 10 10 56 10 56 0 0 -4 7 -8
15 -8 8 0 15 5 15 10 0 6 35 10 85 10 97 0 85 17 110 -145 19 -125 54 -259
104 -395 22 -58 44 -120 50 -139 13 -42 15 -141 1 -141 -5 0 -10 -26 -12 -57
-3 -55 -4 -57 -35 -65 -28 -7 -33 -13 -33 -38 0 -29 -2 -30 -45 -30 -25 0 -45
5 -45 10 0 6 -95 10 -265 10 -146 0 -265 -3 -265 -7 0 -5 -20 -9 -45 -11 -44
-2 -45 -1 -45 28 0 25 -5 31 -32 38 l-33 8 -3 467 c-2 471 -2 474 -35 468 -5
-1 -6 3 -3 8 4 5 -3 9 -14 8 -15 -1 -19 -7 -15 -22 3 -11 2 -14 -1 -7 -10 21
-44 14 -44 -9 0 -11 4 -17 10 -14 6 3 7 -1 4 -9 -7 -18 -24 -22 -24 -5 0 5 -5
7 -11 3 -7 -4 -7 1 1 16 6 12 9 24 6 28 -3 3 -6 0 -6 -6 0 -7 -9 -12 -20 -12
-11 0 -20 -4 -20 -10 0 -5 -11 -10 -25 -10 -16 0 -25 -6 -25 -15 0 -8 -9 -15
-20 -15 -11 0 -20 -4 -20 -10 0 -5 -11 -10 -25 -10 -14 0 -25 -4 -25 -10 0 -5
-9 -10 -20 -10 -11 0 -20 -7 -20 -15 0 -9 -9 -15 -25 -15 -14 0 -25 -4 -25 -9
0 -5 -16 -12 -35 -15 -22 -4 -35 -13 -35 -22 0 -8 -4 -13 -9 -10 -5 3 -14 -1
-21 -9 -7 -8 -21 -15 -31 -15 -11 0 -19 -4 -19 -10 0 -5 -9 -10 -20 -10 -11 0
-20 -4 -20 -10 0 -5 -11 -10 -25 -10 -16 0 -25 -6 -25 -15 0 -10 -11 -15 -35
-15 -32 0 -35 -2 -35 -30 l0 -30 66 0 c56 0 65 -2 60 -16 -3 -9 -6 -24 -6 -35
0 -18 -12 -19 -366 -19 -241 0 -363 -3 -359 -10 3 -5 1 -10 -4 -10 -14 0 -14
17 0 26 6 3 9 19 7 35 -4 28 -3 29 34 29 39 0 46 8 26 28 -9 9 -9 12 1 12 9 0
12 10 9 32 -5 28 -4 29 9 13 12 -17 13 -16 13 13 0 29 -3 32 -31 32 -26 0 -31
-3 -26 -20 4 -15 0 -20 -13 -20 -13 0 -17 5 -13 20 5 18 0 20 -40 20 -83 0
-77 -22 -77 296 0 183 4 284 10 284 6 0 10 43 10 108 1 74 5 115 15 132 8 14
14 51 15 82 0 31 5 60 10 63 6 3 10 33 10 66 0 33 4 59 10 59 6 0 10 20 10 45
0 25 5 45 10 45 6 0 10 17 10 39 0 22 6 44 15 51 9 7 15 29 15 51 0 22 5 39
10 39 6 0 10 18 10 39 0 22 5 41 12 43 6 2 9 12 5 21 -6 16 -36 17 -347 17
-331 0 -340 1 -340 20 0 42 25 76 53 71 4 -1 10 6 13 14 4 8 18 15 33 15 16 0
32 9 41 21 37 53 63 69 115 69 44 0 52 3 70 30 11 17 28 33 38 36 9 3 17 10
17 15 0 5 9 9 20 9 11 0 20 5 20 10 0 6 20 10 45 10 25 0 45 -4 45 -10 0 -5
11 -10 25 -10 14 0 25 -4 25 -10 0 -5 9 -10 20 -10 12 0 20 7 20 16 0 18 23
44 39 44 6 0 11 5 11 10 0 6 9 10 20 10 11 0 20 5 20 10 0 6 9 10 20 10 11 0
20 5 20 10 0 6 23 10 51 10 40 0 55 5 70 23 10 12 18 28 19 35 0 6 5 12 10 12
6 0 10 45 10 115 0 70 -4 115 -10 115 -5 0 -10 14 -10 30 0 20 -5 30 -15 30
-8 0 -15 7 -15 16 0 9 -9 18 -20 21 -29 8 -29 73 0 73 19 0 70 40 70 55 0 6
11 20 38 50 6 7 12 23 12 34 0 14 6 21 20 21 15 0 20 -7 20 -25 0 -14 5 -25
10 -25 6 0 10 -7 10 -16 0 -9 16 -31 35 -49 39 -38 75 -38 75 -1 0 12 9 28 20
36 11 8 20 22 20 32 0 9 5 20 10 23 19 12 10 23 -24 29 -48 9 -86 42 -86 74 0
46 24 64 98 77 35 6 42 10 36 23 -13 34 -16 111 -5 145 16 47 79 103 133 118
24 7 44 14 46 15 2 1 -4 17 -14 36 -26 50 -24 171 3 223 44 82 129 134 221
135 47 0 52 2 52 22 0 41 41 109 75 125 28 13 31 18 20 29 -10 11 -50 14 -159
14 -91 0 -146 4 -146 10 0 6 -63 10 -170 10 -107 0 -170 -4 -170 -10 0 -5 -11
-10 -25 -10 -14 0 -25 -4 -25 -10 0 -5 -13 -10 -30 -10 -16 0 -30 -4 -30 -10
0 -5 -16 -12 -35 -16 -19 -3 -35 -10 -35 -15 0 -5 -16 -9 -35 -9 -19 0 -35 -4
-35 -10 0 -5 -18 -10 -40 -10 -22 0 -40 -3 -40 -8 0 -7 -91 -32 -119 -32 -7 0
-19 7 -27 15 -14 13 -14 17 0 30 8 8 28 15 45 15 21 0 31 5 31 15 0 8 -9 15
-20 15 -55 0 17 85 82 96 20 4 39 13 42 20 3 8 12 11 20 8 9 -3 23 1 31 10 9
9 27 16 41 16 13 0 24 5 24 10 0 6 16 10 35 10 19 0 35 5 35 10 0 6 13 10 29
10 17 0 31 6 35 16 3 8 10 13 14 10 5 -3 21 2 36 10 16 7 39 14 52 14 13 0 24
5 24 10 0 6 11 10 25 10 14 0 25 5 25 10 0 6 9 10 19 10 10 0 21 7 25 15 3 8
14 15 23 15 10 0 25 9 33 20 8 11 20 20 27 20 7 0 13 5 13 10 0 6 9 10 20 10
11 0 20 5 20 11 0 14 26 39 41 39 6 0 19 8 28 19 9 10 26 21 37 25 12 4 34 17
49 30 32 28 85 40 85 19 0 -7 -4 -13 -10 -13 -5 0 -10 -7 -10 -15 0 -18 -43
-65 -60 -65 -5 0 -10 -7 -10 -15 0 -11 8 -13 33 -8 17 3 34 10 35 15 2 4 19 8
38 8 19 0 34 4 34 9 0 5 14 14 30 21 17 7 30 16 30 21 0 5 5 9 10 9 6 0 21 10
34 23 13 12 33 29 45 37 11 8 21 20 21 28 0 7 9 22 20 34 11 12 20 30 20 39 0
10 7 24 15 33 8 8 15 24 15 35 0 12 5 21 10 21 6 0 10 14 10 30 0 17 5 30 10
30 6 0 10 9 10 20 0 11 7 20 15 20 9 0 15 9 15 25 0 14 5 25 10 25 6 0 10 9
10 20 0 11 5 20 10 20 6 0 10 7 10 15 0 9 9 15 25 15 14 0 25 5 25 10 0 6 5
10 10 10 6 0 10 -7 10 -15z m2585 -193 c-3 -3 -11 0 -18 7 -9 10 -8 11 6 5 10
-3 15 -9 12 -12z m58 -19 c-7 -2 -21 -2 -30 0 -10 3 -4 5 12 5 17 0 24 -2 18
-5z m87 -129 c0 -2 -9 0 -20 6 -11 6 -20 13 -20 16 0 2 9 0 20 -6 11 -6 20
-13 20 -16z m-34 -119 c23 -18 10 -18 -36 0 -32 12 -33 14 -9 14 14 1 34 -6
45 -14z m-39 -51 c-3 -3 -12 -4 -19 -1 -8 3 -5 6 6 6 11 1 17 -2 13 -5z m820
-279 c11 -8 31 -32 43 -52 l22 -38 -42 43 c-22 23 -47 42 -55 42 -7 0 -32 -21
-55 -47 -39 -44 -41 -45 -25 -14 21 41 59 81 77 81 8 0 23 -7 35 -15z m513
-70 c0 -28 -4 -35 -20 -35 -16 0 -20 7 -20 35 0 28 4 35 20 35 16 0 20 -7 20
-35z m1150 -15 c0 -11 -4 -20 -10 -20 -5 0 -10 -9 -10 -20 0 -17 -7 -20 -50
-20 -50 0 -50 0 -50 33 0 19 3 37 7 40 3 4 30 7 60 7 46 0 53 -2 53 -20z
m-1152 -102 c-2 -31 -8 -44 -20 -46 -15 -3 -18 4 -18 42 0 40 3 46 21 46 18 0
20 -5 17 -42z m-1660 17 c4 -3 -40 -5 -96 -4 -56 1 -105 6 -108 11 -7 11 194
4 204 -7z m310 -90 c1 -64 0 -74 -12 -63 -8 7 -10 15 -5 16 16 6 10 19 -11 25
-11 3 -23 1 -26 -4 -3 -5 -13 -8 -22 -8 -16 1 -16 2 0 6 14 4 15 8 5 24 -13
21 -28 26 -24 7 1 -7 -3 -12 -10 -11 -7 2 -10 -4 -7 -12 5 -12 -3 -15 -37 -15
-46 0 -50 9 -5 12 26 2 27 5 24 43 l-3 41 63 -3 c34 -1 62 2 62 8 0 5 1 9 3 9
2 0 4 -34 5 -75z m-181 58 c28 -4 31 -8 31 -40 0 -33 -1 -34 -31 -28 -18 4
-37 13 -43 21 -10 13 -12 12 -18 -1 -3 -9 -11 -13 -17 -10 -6 4 -8 14 -5 22 4
8 1 11 -5 8 -6 -4 -8 -13 -6 -19 4 -9 -6 -13 -29 -14 -30 -1 -34 2 -34 23 0
14 -4 25 -9 25 -4 0 -6 -11 -3 -25 4 -22 1 -25 -27 -25 -17 0 -31 2 -31 4 0 2
-3 12 -7 22 -5 14 -2 16 20 12 15 -3 27 -1 27 5 0 5 -13 7 -30 5 -16 -3 -30
-1 -30 4 0 5 -5 6 -10 3 -7 -4 -6 -13 1 -27 7 -13 7 -24 1 -30 -17 -17 -46 -4
-52 22 -5 23 -12 26 -74 32 -37 3 -71 9 -74 13 -7 7 408 5 455 -2z m-660 -9
c-3 -3 -12 -4 -19 -1 -8 3 -5 6 6 6 11 1 17 -2 13 -5z m71 -1 c-10 -2 -26 -2
-35 0 -10 3 -2 5 17 5 19 0 27 -2 18 -5z m105 0 c-13 -2 -35 -2 -50 0 -16 2
-5 4 22 4 28 0 40 -2 28 -4z m-91 -65 c-14 -14 -52 9 -51 30 1 15 2 15 6 -1 3
-11 11 -16 19 -13 9 3 12 1 9 -4 -3 -6 -1 -10 4 -10 6 0 12 12 12 28 2 25 2
25 6 3 3 -13 0 -28 -5 -33z m140 27 c3 -14 1 -25 -3 -25 -5 0 -9 11 -9 25 0
14 2 25 4 25 2 0 6 -11 8 -25z m-453 11 c-2 -2 -24 -6 -48 -9 -29 -4 -40 -2
-30 4 13 8 88 14 78 5z m-291 -13 c-10 -2 -28 -2 -40 0 -13 2 -5 4 17 4 22 1
32 -1 23 -4z m2712 -58 c0 -38 -3 -45 -20 -45 -17 0 -20 7 -20 45 0 38 3 45
20 45 17 0 20 -7 20 -45z m-2243 29 c-3 -3 -12 -4 -19 -1 -8 3 -5 6 6 6 11 1
17 -2 13 -5z m653 -4 c0 -5 -8 -10 -17 -10 -15 0 -16 2 -3 10 19 12 20 12 20
0z m40 0 c0 -5 -7 -10 -15 -10 -8 0 -15 5 -15 10 0 6 7 10 15 10 8 0 15 -4 15
-10z m-307 -7 c-7 -2 -21 -2 -30 0 -10 3 -4 5 12 5 17 0 24 -2 18 -5z m124 1
c-3 -3 -12 -4 -19 -1 -8 3 -5 6 6 6 11 1 17 -2 13 -5z m-514 -11 c-7 -2 -21
-2 -30 0 -10 3 -4 5 12 5 17 0 24 -2 18 -5z m-446 -9 c-3 -3 -12 -4 -19 -1 -8
3 -5 6 6 6 11 1 17 -2 13 -5z m310 -1 c-20 -2 -52 -2 -70 0 -17 2 0 4 38 4 39
0 53 -2 32 -4z m820 -9 c-3 -4 1 -13 9 -21 10 -11 31 -14 74 -11 33 1 60 -1
60 -5 0 -4 -45 -7 -101 -6 -90 2 -98 4 -77 16 l23 14 -24 -7 c-17 -4 -21 -3
-16 6 5 8 -16 11 -84 8 -50 -2 -91 0 -91 5 0 4 53 7 117 7 64 0 114 -3 110 -6z
m-303 -12 c2 -4 -4 -9 -15 -9 -11 -1 -17 2 -14 8 7 11 22 12 29 1z m66 -5 c0
-24 44 -35 150 -36 57 -1 106 -4 109 -6 2 -3 -50 -5 -117 -5 -91 0 -122 3
-123 13 0 10 -2 10 -6 0 -2 -7 -10 -13 -15 -13 -6 0 -9 3 -5 6 3 4 0 13 -8 21
-19 19 -19 33 0 33 8 0 15 -6 15 -13z m333 6 c-13 -2 -35 -2 -50 0 -16 2 -5 4
22 4 28 0 40 -2 28 -4z m-473 -13 c0 -5 -7 -7 -15 -4 -8 4 -15 8 -15 10 0 2 7
4 15 4 8 0 15 -4 15 -10z m230 0 c0 -5 -9 -10 -20 -10 -11 0 -20 5 -20 10 0 6
9 10 20 10 11 0 20 -4 20 -10z m74 -5 c4 -11 -2 -15 -24 -15 -20 0 -30 5 -30
15 0 9 9 15 24 15 13 0 26 -7 30 -15z m256 11 c0 -3 -4 -8 -10 -11 -5 -3 -10
-1 -10 4 0 6 5 11 10 11 6 0 10 -2 10 -4z m-456 -22 c35 -13 13 -23 -48 -21
-73 2 -101 15 -31 14 25 0 48 3 52 6 8 8 8 8 27 1z m-179 -22 c-3 -3 -11 0
-18 7 -9 10 -8 11 6 5 10 -3 15 -9 12 -12z m-267 1 c-10 -2 -26 -2 -35 0 -10
3 -2 5 17 5 19 0 27 -2 18 -5z m229 1 c-3 -3 -12 -4 -19 -1 -8 3 -5 6 6 6 11
1 17 -2 13 -5z m-482 -24 c-3 -5 -34 -9 -68 -8 l-62 1 65 7 c36 4 66 7 68 8 2
1 0 -2 -3 -8z m2535 -20 c0 -23 -4 -30 -20 -30 -16 0 -20 7 -20 30 0 23 4 30
20 30 16 0 20 -7 20 -30z m-2735 11 c-24 -10 -242 -25 -234 -16 4 3 55 9 115
14 145 11 142 11 119 2z m-905 -241 c-34 -11 -60 -11 -35 0 11 5 29 8 40 8 16
0 15 -2 -5 -8z m1943 -82 c30 -1 43 -4 35 -9 -18 -12 -86 -11 -93 1 -11 18
-53 11 -60 -10 -4 -12 -15 -20 -29 -20 -13 0 -37 -3 -54 -6 -27 -6 -31 -4 -29
15 1 18 8 21 42 21 22 0 47 5 55 10 8 6 31 8 50 4 19 -3 57 -6 83 -6z m100 -5
c-7 -2 -19 -2 -25 0 -7 3 -2 5 12 5 14 0 19 -2 13 -5z m192 -12 c-19 -8 -18
-9 5 -13 14 -3 -23 -6 -82 -7 -114 -1 -167 8 -113 20 44 10 214 9 190 0z
m-4005 -87 c0 -10 -28 -34 -41 -34 -8 0 -5 8 7 19 19 20 34 26 34 15z m50 -4
c0 -5 -7 -10 -15 -10 -8 0 -15 5 -15 10 0 6 7 10 15 10 8 0 15 -4 15 -10z m30
-20 c0 -5 -4 -10 -10 -10 -5 0 -10 5 -10 10 0 6 5 10 10 10 6 0 10 -4 10 -10z
m-120 -50 c0 -5 -7 -10 -15 -10 -8 0 -15 5 -15 10 0 6 7 10 15 10 8 0 15 -4
15 -10z m170 0 c0 -5 -4 -10 -10 -10 -5 0 -10 5 -10 10 0 6 5 10 10 10 6 0 10
-4 10 -10z m-150 -39 c0 -6 -4 -13 -10 -16 -5 -3 -10 1 -10 9 0 9 5 16 10 16
6 0 10 -4 10 -9z m150 -1 c0 -5 -4 -10 -10 -10 -5 0 -10 5 -10 10 0 6 5 10 10
10 6 0 10 -4 10 -10z m-130 -50 c0 -5 -4 -10 -10 -10 -5 0 -10 5 -10 10 0 6 5
10 10 10 6 0 10 -4 10 -10z m130 0 c0 -5 -4 -10 -10 -10 -5 0 -10 5 -10 10 0
6 5 10 10 10 6 0 10 -4 10 -10z m4275 -190 c-3 -5 -10 -10 -16 -10 -5 0 -9 5
-9 10 0 6 7 10 16 10 8 0 12 -4 9 -10z m2744 -389 c9 -11 41 -25 71 -33 55
-13 55 -13 52 -48 -2 -19 -8 -36 -13 -38 -5 -2 -9 -15 -9 -28 0 -13 -4 -24
-10 -24 -5 0 -10 -9 -10 -20 0 -11 -7 -20 -16 -20 -8 0 -12 -4 -9 -10 3 -5 -1
-10 -9 -10 -9 0 -16 -4 -16 -8 0 -26 -131 -45 -145 -22 -3 6 -15 10 -26 10
-10 0 -19 5 -19 10 0 6 -5 10 -11 10 -17 0 -39 27 -39 49 0 12 -4 21 -10 21
-5 0 -10 11 -10 24 0 13 -4 26 -9 28 -5 2 -11 17 -13 33 -3 26 0 30 20 27 12
-2 22 2 22 7 0 6 11 11 23 11 13 0 37 11 53 25 37 32 108 35 133 6z m-779
-140 c-5 -11 -19 -19 -29 -18 -11 0 -17 5 -15 9 3 5 9 6 14 3 4 -3 13 2 20 10
17 21 23 19 10 -4z m380 9 c9 -6 11 -13 5 -17 -5 -5 -10 -14 -10 -20 0 -28
-20 -11 -21 17 -1 32 3 35 26 20z m35 0 c-3 -5 -1 -10 5 -10 6 0 8 -4 5 -10
-3 -5 -13 -10 -21 -10 -12 0 -12 4 -4 20 6 11 13 20 16 20 3 0 2 -4 -1 -10z
m-107 -45 c-3 -3 -9 2 -12 12 -6 14 -5 15 5 6 7 -7 10 -15 7 -18z m172 0 c0
-7 5 -15 11 -17 6 -2 9 -13 6 -23 -5 -19 -5 -19 -12 3 -7 22 -25 31 -25 12 0
-5 -9 -10 -20 -10 -11 0 -20 7 -20 15 0 8 7 15 16 15 8 0 13 4 10 9 -7 10 14
21 27 14 4 -2 7 -10 7 -18z m-230 -5 c0 -5 -2 -10 -4 -10 -3 0 -8 5 -11 10 -3
6 -1 10 4 10 6 0 11 -4 11 -10z m-36 -15 c-7 -17 -20 -20 -28 -6 -7 10 3 21
20 21 8 0 11 -6 8 -15z m-209 -5 c13 -6 15 -9 5 -9 -8 0 -22 4 -30 9 -18 12
-2 12 25 0z m545 0 c0 -5 -2 -10 -4 -10 -3 0 -8 5 -11 10 -3 6 -1 10 4 10 6 0
11 -4 11 -10z m-648 -25 c0 -5 -5 -11 -10 -13 -5 -1 -9 4 -9 13 0 9 4 14 9 13
5 -2 10 -8 10 -13z m83 -14 c3 -5 2 -12 -3 -15 -5 -3 -9 1 -9 9 0 17 3 19 12
6z m215 -1 c0 -5 -9 -10 -20 -10 -11 0 -20 5 -20 10 0 6 9 10 20 10 11 0 20
-4 20 -10z m255 0 c3 -5 -1 -10 -10 -10 -9 0 -13 5 -10 10 3 6 8 10 10 10 2 0
7 -4 10 -10z m95 -35 c0 -5 -5 -3 -10 5 -5 8 -10 20 -10 25 0 6 5 3 10 -5 5
-8 10 -19 10 -25z m-600 21 c0 -3 -4 -8 -10 -11 -5 -3 -10 -1 -10 4 0 6 5 11
10 11 6 0 10 -2 10 -4z m460 -6 c0 -5 -9 -10 -20 -10 -11 0 -20 5 -20 10 0 6
9 10 20 10 11 0 20 -4 20 -10z m-380 -30 c-8 -5 -19 -9 -25 -9 -5 0 -4 3 3 6
6 2 12 12 12 21 0 13 3 13 12 4 10 -10 10 -15 -2 -22z m435 11 c0 -8 -4 -16
-10 -18 -16 -5 -38 14 -30 26 9 16 40 9 40 -8z m-625 -1 c0 -5 -4 -10 -10 -10
-5 0 -10 5 -10 10 0 6 5 10 10 10 6 0 10 -4 10 -10z m60 0 c0 -5 -4 -10 -10
-10 -5 0 -10 5 -10 10 0 6 5 10 10 10 6 0 10 -4 10 -10z m390 -15 c-13 -15
-30 -12 -30 7 0 5 7 8 15 4 8 -3 15 0 15 6 0 6 3 8 6 5 4 -4 1 -13 -6 -22z
m-420 0 c10 -12 10 -15 -4 -15 -9 0 -16 7 -16 15 0 8 2 15 4 15 2 0 9 -7 16
-15z m720 -5 c0 -5 26 -11 58 -14 75 -8 85 -8 165 0 l67 6 0 -26 c0 -21 5 -26
25 -26 14 0 25 -4 25 -10 0 -5 14 -10 30 -10 17 0 30 -4 30 -10 0 -5 11 -10
25 -10 14 0 25 -5 25 -11 0 -5 5 -7 10 -4 6 3 10 1 10 -4 0 -6 11 -11 25 -11
14 0 25 -4 25 -10 0 -5 7 -10 15 -10 8 0 15 -4 15 -10 0 -5 7 -10 15 -10 10 0
15 -10 15 -26 0 -21 -4 -25 -20 -21 -13 3 -20 0 -20 -9 0 -25 -16 -15 -36 21
-10 19 -22 35 -26 35 -5 0 -8 -24 -8 -54 l0 -53 -41 -6 c-23 -3 -45 -10 -48
-15 -3 -5 -23 -12 -45 -16 -21 -4 -49 -17 -62 -29 -39 -37 -53 -47 -64 -47 -5
0 -10 -8 -10 -18 0 -10 -9 -28 -20 -40 -11 -12 -20 -28 -20 -37 0 -8 -4 -15
-10 -15 -5 0 -10 -11 -10 -24 0 -13 -6 -27 -12 -30 -10 -5 -10 -7 0 -12 7 -3
12 -24 12 -48 0 -36 -4 -45 -25 -54 -32 -15 -32 -32 -1 -32 22 0 24 -5 28 -55
2 -39 -1 -55 -9 -55 -7 0 -13 5 -13 10 0 6 -11 10 -25 10 -18 0 -25 -5 -25
-19 0 -18 -52 -46 -63 -34 -10 9 -47 -8 -47 -23 0 -8 5 -14 10 -14 6 0 10 -11
10 -25 0 -14 5 -25 10 -25 6 0 10 -7 10 -16 0 -8 7 -22 15 -30 8 -9 15 -24 15
-35 0 -11 5 -17 10 -14 6 4 10 -8 10 -30 0 -22 4 -34 10 -30 6 4 10 -15 10
-49 0 -53 -1 -56 -25 -56 -14 0 -25 5 -25 10 0 6 -35 10 -85 10 -47 0 -85 3
-85 8 0 12 -47 62 -59 62 -6 0 -11 9 -11 20 0 11 -4 20 -10 20 -6 0 -10 30
-10 70 0 39 4 70 9 70 4 0 11 20 14 45 4 24 12 53 18 63 7 11 9 27 5 37 -6 17
-7 17 -20 -1 -8 -10 -12 -22 -10 -26 3 -5 0 -8 -5 -8 -6 0 -11 -11 -11 -25 0
-14 -4 -25 -10 -25 -5 0 -10 -11 -10 -25 0 -14 -4 -25 -10 -25 -5 0 -10 -7
-10 -16 0 -18 -23 -44 -39 -44 -13 0 -15 -73 -2 -98 4 -9 17 -35 27 -57 22
-47 38 -65 55 -65 20 0 -25 -37 -66 -54 -21 -9 -55 -16 -76 -16 -22 0 -39 -4
-39 -10 0 -6 -43 -10 -110 -10 -67 0 -110 4 -110 10 0 6 -20 10 -45 10 -25 0
-45 5 -45 10 0 6 -8 10 -18 10 -11 0 -27 9 -37 20 -17 19 -17 21 19 54 20 19
36 41 36 49 0 9 4 17 9 19 26 9 6 168 -21 168 -5 0 -8 9 -8 20 0 11 -7 23 -15
26 -8 4 -15 17 -15 29 0 13 -4 27 -10 30 -5 3 -10 15 -10 26 0 19 -21 49 -34
49 -10 0 -6 -49 4 -55 6 -3 10 -21 10 -40 0 -18 5 -35 11 -37 7 -2 11 -39 12
-94 2 -86 1 -91 -26 -118 -24 -24 -29 -25 -42 -12 -8 8 -15 17 -15 21 0 10
-28 35 -39 35 -6 0 -11 4 -11 8 0 5 -25 14 -55 21 -64 15 -67 23 -30 99 14 29
25 56 25 62 0 5 5 10 10 10 6 0 10 14 10 30 0 17 5 30 10 30 6 0 10 13 10 28
0 15 5 33 11 39 6 6 13 28 16 49 2 22 8 52 14 68 5 16 9 71 9 122 0 56 4 94
10 94 6 0 10 22 10 48 0 27 3 52 7 56 4 3 8 14 9 24 2 9 8 18 13 20 6 2 11 12
11 23 0 10 5 19 10 19 6 0 10 9 10 20 0 12 9 31 20 42 11 13 18 29 15 39 -3
10 -1 20 4 24 7 3 8 0 5 -9 -4 -11 0 -16 10 -16 9 0 16 5 16 10 0 6 9 10 19
10 11 0 21 5 23 10 2 6 13 12 26 13 12 0 22 7 22 14 0 9 18 13 60 13 41 0 59
4 58 12 -2 6 5 14 15 16 10 2 17 -2 17 -12 0 -13 11 -16 53 -16 29 0 58 -5 64
-11 14 -14 46 -18 60 -7 8 7 10 3 6 -11 -4 -15 -1 -21 11 -21 9 0 16 -4 16
-10 0 -5 23 -10 50 -10 28 0 50 5 50 10 0 6 14 10 31 10 29 0 64 22 53 33 -3
2 2 7 10 10 8 3 17 -1 20 -8 7 -18 36 -8 36 12 0 26 20 52 35 47 8 -4 15 -10
15 -14z m-60 0 c0 -5 -11 -10 -25 -10 -14 0 -25 5 -25 10 0 6 11 10 25 10 14
0 25 -4 25 -10z m-183 -36 c0 -19 -42 -48 -57 -39 -13 8 -13 32 2 41 7 4 8 3
4 -4 -10 -17 3 -15 20 3 20 19 31 19 31 -1z m-507 -9 c0 -8 -2 -15 -4 -15 -2
0 -6 7 -10 15 -3 8 -1 15 4 15 6 0 10 -7 10 -15z m24 -10 c-4 -8 -8 -15 -10
-15 -2 0 -4 7 -4 15 0 8 4 15 10 15 5 0 7 -7 4 -15z m-444 -176 c0 -5 -6 -9
-14 -9 -8 0 -16 -6 -19 -12 -3 -10 -7 -10 -17 -1 -13 12 -4 37 10 28 5 -3 11
-1 15 5 7 12 25 4 25 -11z m1770 -30 c0 -12 -7 -19 -20 -19 -19 0 -28 28 -14
43 11 11 34 -5 34 -24z m-1900 -24 c0 -8 -5 -17 -12 -21 -6 -4 -8 -3 -4 4 3 6
2 13 -4 17 -6 4 -8 11 -4 16 7 12 24 2 24 -16z m125 -5 c3 -6 -4 -10 -17 -10
-18 0 -20 2 -8 10 19 12 18 12 25 0z m-3593 -55 c-2 -14 -8 -25 -13 -25 -12 0
-11 7 1 31 14 26 18 24 12 -6z m3742 16 c4 -5 -3 -7 -14 -4 -23 6 -26 13 -6
13 8 0 17 -4 20 -9z m-49 -11 c3 -5 2 -10 -4 -10 -5 0 -13 5 -16 10 -3 6 -2
10 4 10 5 0 13 -4 16 -10z m-165 -40 c12 -29 15 -30 72 -30 40 0 64 5 75 15 8
8 19 13 24 10 5 -4 9 -1 9 4 0 6 -9 11 -19 11 -11 0 -22 4 -26 9 -3 6 7 6 27
0 18 -5 34 -9 35 -9 2 0 3 -20 3 -45 0 -25 5 -45 10 -45 6 0 10 -24 10 -54 0
-30 -4 -58 -10 -61 -5 -3 -10 -33 -10 -66 0 -33 -4 -59 -10 -59 -5 0 -10 -20
-10 -44 0 -25 -4 -48 -10 -51 -5 -3 -10 -19 -10 -35 0 -16 -7 -35 -15 -44 -8
-8 -15 -28 -15 -45 0 -17 -4 -31 -10 -31 -5 0 -10 -7 -10 -16 0 -39 -63 -64
-68 -26 -2 12 -7 22 -11 22 -5 0 -11 18 -14 39 -3 22 -12 54 -21 72 -9 18 -16
45 -16 61 0 15 -4 28 -10 28 -5 0 -10 18 -10 41 0 22 -4 38 -9 35 -5 -3 -11
15 -13 42 -3 26 -11 68 -18 95 -12 40 -12 52 -1 80 8 17 16 51 18 73 4 36 8
41 25 36 14 -3 19 -1 14 6 -4 7 -3 12 2 12 5 0 15 -13 22 -30z m-2800 -340 l0
-80 80 0 79 0 3 78 3 77 38 3 37 3 0 -200 0 -201 -40 0 -40 0 0 85 0 86 -77
-3 -78 -3 -3 -82 -3 -83 -34 0 -35 0 0 200 0 200 35 0 35 0 0 -80z m548 -15
c19 -49 51 -138 73 -197 l38 -108 -42 0 c-41 0 -43 2 -58 43 l-16 42 -74 0
-74 0 -15 -42 c-14 -42 -16 -43 -57 -43 -24 0 -43 1 -43 3 0 1 14 39 30 84
127 347 111 315 162 311 l43 -3 33 -90z m415 81 c18 -7 41 -21 50 -31 17 -17
17 -19 -4 -41 -27 -28 -36 -30 -61 -7 -26 24 -102 22 -136 -4 -41 -30 -53 -61
-49 -121 4 -63 32 -97 90 -113 35 -9 46 -7 91 15 l51 25 24 -24 c30 -29 21
-43 -44 -74 -77 -36 -174 -23 -234 32 -76 70 -80 217 -8 296 51 55 159 77 230
47z m207 -71 c0 -41 3 -75 8 -75 4 1 34 34 67 75 59 74 60 75 108 75 57 0 57
2 -25 -91 -32 -37 -58 -70 -58 -74 0 -4 30 -50 68 -103 37 -53 71 -102 75
-109 6 -10 -3 -13 -41 -13 l-49 0 -47 68 c-26 37 -51 74 -56 82 -7 12 -12 10
-29 -9 -16 -18 -21 -38 -21 -83 l0 -58 -40 0 -40 0 0 195 0 195 40 0 40 0 0
-75z m568 40 c77 -33 121 -102 122 -193 0 -46 -4 -58 -29 -83 -33 -32 -65 -37
-99 -13 -20 14 -24 14 -44 0 -42 -30 -107 -15 -145 34 -7 8 -13 36 -13 62 0
36 6 54 26 77 24 29 27 30 109 30 l84 -1 3 -77 c3 -68 5 -76 23 -76 33 0 42
47 19 101 -22 55 -51 79 -115 95 -42 11 -50 10 -95 -12 -60 -29 -94 -77 -94
-131 0 -101 94 -175 192 -150 37 10 40 9 49 -16 12 -31 2 -39 -57 -48 -79 -12
-165 28 -211 97 -24 37 -28 53 -28 115 0 64 3 77 30 115 41 58 102 89 177 89
32 0 75 -7 96 -15z m2897 -232 c30 -9 55 -21 55 -25 0 -4 13 -8 29 -8 17 0 33
-4 36 -10 3 -5 19 -10 36 -10 16 0 29 -4 29 -10 0 -5 9 -10 19 -10 30 0 51
-11 51 -26 0 -8 -4 -14 -10 -14 -5 0 -10 -14 -10 -30 0 -18 -6 -33 -15 -36 -8
-4 -15 -17 -15 -30 0 -13 -4 -24 -10 -24 -6 0 -10 -43 -10 -110 0 -67 4 -110
10 -110 6 0 10 -32 10 -75 0 -73 1 -75 25 -75 14 0 25 -4 25 -9 0 -5 8 -12 18
-16 43 -13 59 -124 22 -147 -11 -7 -20 -18 -20 -24 0 -17 -75 -26 -104 -13
-14 7 -28 20 -31 31 -7 19 -25 25 -25 7 0 -5 -4 -7 -10 -4 -5 3 -10 -3 -10
-13 0 -21 -25 -36 -41 -26 -5 3 -60 6 -122 7 -143 2 -147 6 -147 111 0 44 -4
76 -10 76 -5 0 -10 16 -10 35 0 19 -4 35 -10 35 -5 0 -10 9 -10 19 0 11 -7 26
-15 35 -8 8 -15 21 -15 28 0 8 -9 20 -20 28 -11 8 -20 20 -20 27 0 7 -4 13 -9
13 -5 0 -12 30 -16 68 -3 37 -10 75 -15 84 -6 10 -10 29 -10 43 0 14 -4 25
-10 25 -5 0 -10 16 -10 35 0 21 -5 35 -12 36 -10 0 -10 2 0 6 6 2 12 11 12 19
0 8 10 14 25 14 14 0 25 5 25 10 0 6 14 10 30 10 17 0 30 5 30 10 0 6 14 10
31 10 17 0 37 7 45 15 9 8 28 15 44 15 16 0 32 5 35 10 9 15 68 12 130 -7z
m-4970 -348 c26 -17 56 -46 66 -65 37 -68 18 -155 -42 -200 l-21 -16 28 -19
c93 -61 106 -166 32 -251 -50 -56 -83 -65 -265 -71 l-163 -6 -1 297 c0 163 -1
310 -1 326 0 17 1 33 1 36 1 3 72 4 159 3 156 -4 159 -4 207 -34z m302 -60
c17 -49 54 -155 80 -233 l49 -144 58 164 c31 89 69 196 84 236 l27 72 61 0
c33 0 63 -2 66 -5 3 -3 -48 -150 -112 -328 l-118 -322 -59 -3 c-40 -2 -63 1
-70 10 -16 19 -231 631 -226 641 3 4 32 7 66 5 l62 -3 32 -90z m859 60 c142
-88 133 -279 -18 -356 -28 -14 -58 -19 -123 -19 l-85 0 0 -125 0 -126 -62 3
-63 3 -3 315 c-1 173 0 321 3 328 4 11 35 13 153 11 145 -4 150 -5 198 -34z
m1498 4 c56 -15 128 -91 155 -162 29 -79 30 -223 1 -299 -52 -139 -178 -206
-314 -166 -63 19 -137 99 -161 173 -26 79 -26 209 -1 285 23 65 105 153 157
168 46 14 116 14 163 1z m-736 -201 l2 -198 35 0 35 0 0 -55 0 -55 -35 0 -34
0 -3 -57 -3 -58 -60 0 -60 0 -3 58 -3 57 -139 0 -140 0 0 51 c0 48 6 59 138
255 l137 205 65 -3 65 -3 3 -197z m2172 42 c0 -5 25 -10 55 -10 30 0 55 -4 55
-10 0 -6 43 -10 110 -10 67 0 110 4 110 10 0 6 25 10 55 10 30 0 55 5 55 10 0
6 9 10 20 10 16 0 20 -7 20 -30 0 -16 5 -30 10 -30 6 0 10 -9 10 -20 0 -22 31
-93 43 -98 4 -2 7 -15 7 -28 0 -13 5 -24 10 -24 6 0 10 -9 10 -20 0 -11 5 -20
10 -20 6 0 10 -8 10 -18 0 -10 11 -25 25 -32 19 -10 25 -21 25 -47 0 -18 5
-33 10 -33 6 0 10 9 10 19 0 21 19 31 61 31 27 0 35 -11 30 -42 0 -5 6 -8 14
-8 19 0 19 -14 0 -34 -8 -8 -15 -28 -15 -44 0 -17 -6 -32 -12 -35 -10 -4 -10
-7 0 -18 18 -19 15 -29 -8 -29 -11 0 -20 -4 -20 -10 0 -5 -7 -10 -16 -10 -14
0 -14 -3 -4 -15 11 -13 15 -13 22 -3 7 10 9 10 5 -2 -5 -20 -37 -26 -48 -8 -7
10 -9 9 -9 -4 0 -11 -10 -18 -27 -20 -19 -2 -29 -10 -31 -23 -2 -11 -11 -25
-19 -32 -10 -8 -14 -22 -10 -38 3 -17 0 -28 -9 -32 -8 -3 -14 -16 -14 -30 0
-13 -4 -21 -10 -18 -5 3 -10 -3 -10 -14 0 -11 -5 -23 -11 -27 -8 -4 -7 -9 2
-16 11 -8 11 -9 -2 -5 -9 3 -22 2 -29 -3 -17 -10 -24 -90 -7 -90 8 0 7 -4 -3
-10 -13 -8 -12 -10 3 -10 12 0 17 8 17 25 0 14 5 25 10 25 6 0 10 5 10 11 0 5
-4 8 -8 5 -4 -2 -14 0 -22 6 -12 8 -11 9 4 4 14 -5 17 -2 12 11 -6 17 -5 17 8
1 7 -10 18 -18 24 -18 6 0 14 -5 18 -11 4 -7 1 -10 -7 -7 -9 3 -20 -9 -30 -30
-18 -39 -15 -69 5 -53 9 8 12 2 10 -19 -1 -17 2 -27 7 -24 5 3 9 -4 9 -16 0
-26 -29 -121 -41 -135 -5 -5 -9 -24 -9 -42 0 -18 -4 -33 -10 -33 -5 0 -10 -11
-10 -25 0 -34 -22 -115 -32 -115 -4 0 -8 -13 -8 -30 0 -16 -4 -30 -10 -30 -5
0 -10 -16 -10 -35 0 -19 -4 -35 -10 -35 -5 0 -10 -10 -10 -22 -1 -13 -7 -34
-15 -48 -8 -14 -14 -35 -15 -47 0 -13 -4 -23 -10 -23 -5 0 -10 -13 -10 -30 0
-16 -4 -30 -10 -30 -5 0 -10 9 -10 19 0 11 -4 21 -10 23 -5 2 -13 38 -16 81
-4 42 -10 77 -14 77 -4 0 -8 33 -9 73 -1 39 -6 74 -12 75 -11 4 -12 89 -1 94
4 2 15 18 24 37 14 31 14 36 -1 65 -9 17 -19 33 -23 34 -5 2 -8 12 -8 23 0 10
-4 19 -10 19 -5 0 -10 9 -10 20 0 11 -3 20 -7 20 -16 -1 -43 -28 -43 -44 0 -9
-4 -16 -10 -16 -5 0 -10 -7 -10 -15 0 -8 -4 -15 -10 -15 -5 0 -10 -9 -10 -19
0 -11 -6 -21 -12 -24 -10 -3 -10 -9 0 -26 6 -11 12 -30 12 -41 0 -11 5 -20 10
-20 6 0 10 -35 10 -85 0 -50 -4 -85 -10 -85 -5 0 -10 -25 -10 -56 0 -50 3 -59
31 -85 l32 -30 0 -335 c0 -329 0 -335 21 -346 28 -15 50 -38 37 -38 -6 0 -11
-11 -11 -25 0 -14 -4 -25 -10 -25 -5 0 -10 -9 -10 -20 0 -15 -7 -20 -25 -20
-14 0 -25 5 -25 10 0 6 -7 10 -16 10 -9 0 -31 15 -50 33 -48 45 -62 57 -71 57
-5 0 -15 9 -23 20 -8 11 -19 20 -25 20 -6 0 -28 16 -48 35 -45 42 -97 49 -97
13 0 -17 -3 -19 -12 -10 -7 7 -29 12 -49 12 -28 0 -43 -6 -57 -25 -11 -14 -30
-25 -43 -25 -26 -1 -59 -21 -59 -37 0 -10 -43 -33 -60 -33 -6 0 -10 7 -10 15
0 8 -3 14 -7 13 -5 -2 -9 1 -10 6 -6 31 -133 48 -160 21 -8 -8 -20 -12 -26 -8
-6 4 -8 0 -4 -10 3 -10 2 -17 -3 -17 -6 0 -10 7 -10 15 0 8 -6 12 -14 9 -11
-4 -13 0 -9 15 7 26 -50 81 -84 81 -13 0 -23 5 -23 10 0 6 -23 9 -52 9 -29 -1
-45 -3 -35 -6 9 -2 17 -8 18 -11 0 -4 2 -15 4 -24 2 -9 -3 -19 -11 -22 -13 -5
-18 5 -15 32 1 7 -11 12 -33 12 -31 0 -36 -4 -47 -35 -9 -23 -19 -35 -32 -35
-10 0 -16 -4 -12 -9 3 -5 -2 -16 -11 -25 -17 -18 -9 -40 12 -32 8 3 11 0 7
-10 -6 -16 -19 -18 -28 -4 -9 15 -64 12 -81 -4 -8 -8 -14 -23 -14 -33 0 -21
-28 -41 -53 -37 -9 1 -15 -1 -12 -6 10 -17 -27 -32 -89 -37 l-65 -6 -17 37
c-10 20 -21 36 -26 36 -4 0 -8 9 -8 20 0 13 -7 20 -20 20 -11 0 -20 5 -20 10
0 6 -6 10 -13 10 -18 0 -57 34 -57 49 0 7 -13 26 -30 43 -27 26 -32 28 -45 14
-8 -8 -15 -19 -15 -25 0 -6 -7 -11 -15 -11 -8 0 -15 -4 -15 -10 0 -5 -9 -10
-20 -10 -11 0 -20 -4 -20 -10 0 -5 -25 -10 -55 -10 -30 0 -55 5 -55 10 0 6 -7
10 -15 10 -20 0 -75 56 -75 75 0 8 -4 15 -10 15 -5 0 -10 11 -10 25 0 21 -5
25 -30 25 -16 0 -30 5 -30 10 0 6 -7 10 -15 10 -22 0 -19 8 23 47 35 34 36 36
10 30 -32 -8 -90 2 -82 14 3 5 -6 9 -19 9 -17 0 -29 10 -43 35 -10 19 -22 35
-26 35 -5 0 -8 7 -8 15 0 22 -32 55 -52 55 -10 0 -18 3 -18 8 0 10 -73 32
-105 32 -14 0 -25 -4 -25 -10 0 -5 -14 -10 -30 -10 -22 0 -41 -10 -65 -35 -19
-19 -35 -37 -35 -40 0 -4 -7 -13 -16 -22 -12 -13 -20 -13 -40 -4 -33 15 -139
14 -166 -1 -37 -21 -50 -38 -52 -64 -1 -21 -3 -22 -13 -8 -6 9 -16 13 -22 9
-7 -3 -8 0 -5 9 5 13 -1 16 -30 16 -25 0 -36 4 -36 15 0 18 -12 19 -28 3 -9
-9 -12 -9 -12 3 0 12 -2 12 -9 0 -10 -16 -41 -24 -41 -11 0 5 6 10 13 13 6 2
-16 5 -50 5 -45 1 -62 -2 -67 -13 -3 -8 -15 -15 -26 -15 -11 0 -23 -7 -26 -15
-4 -8 -10 -13 -14 -10 -4 3 -13 -2 -20 -10 -10 -12 -9 -16 3 -21 19 -7 12 -31
-11 -37 -10 -3 2 -5 24 -6 40 -1 42 -3 46 -35 2 -19 1 -33 -3 -30 -12 7 -39
-7 -33 -17 3 -5 3 -9 -1 -9 -3 0 -9 8 -13 18 -7 18 -8 18 -27 -1 -20 -20 -20
-20 3 -14 15 3 22 1 22 -10 0 -8 5 -11 10 -8 6 3 14 -5 20 -19 8 -21 30 -37
30 -22 0 2 3 12 7 22 4 12 3 15 -5 10 -8 -4 -7 4 2 25 14 32 15 33 72 30 32
-1 62 -5 66 -7 5 -3 8 -21 8 -40 l0 -34 -60 0 c-33 0 -60 -4 -60 -10 0 -5 7
-10 16 -10 8 0 12 -4 9 -10 -3 -5 2 -10 13 -10 15 0 18 -6 14 -30 -3 -18 0
-30 7 -30 6 0 11 -7 11 -15 0 -8 9 -15 20 -15 15 0 20 7 20 25 0 23 4 25 45
25 43 0 45 1 45 30 0 23 -4 30 -20 30 -11 0 -20 4 -20 10 0 5 -6 9 -12 7 -9
-1 -14 13 -16 41 l-3 42 80 0 c66 0 81 -3 81 -15 0 -9 7 -15 16 -13 10 2 19
-3 21 -9 3 -7 0 -13 -6 -13 -6 0 -11 -9 -11 -20 0 -11 7 -20 15 -20 8 0 15 -7
15 -15 0 -12 15 -15 71 -15 38 0 68 4 65 8 -2 4 3 8 13 9 10 1 18 -5 18 -12 0
-8 -3 -12 -7 -10 -4 2 -7 -9 -8 -24 -1 -27 3 -29 39 -33 22 -2 44 1 50 7 7 7
8 4 3 -8 -5 -13 -1 -20 15 -24 11 -3 21 -9 21 -14 0 -5 7 -9 15 -9 9 0 15 -9
15 -25 0 -14 6 -26 13 -27 46 -6 -250 -16 -514 -17 l-315 -1 -17 -35 c-11 -24
-17 -61 -17 -110 0 -40 -4 -77 -10 -80 -5 -3 -10 -40 -10 -81 0 -43 -4 -74
-10 -74 -6 0 -10 -35 -10 -85 0 -50 -4 -85 -10 -85 -5 0 -10 -20 -10 -44 0
-24 -7 -63 -15 -86 -8 -23 -15 -64 -15 -91 0 -27 -4 -49 -10 -49 -6 0 -10 -33
-10 -80 0 -47 -4 -80 -10 -80 -6 0 -10 -29 -10 -68 0 -37 -4 -72 -10 -78 -5
-5 -12 -46 -16 -92 -4 -45 -11 -85 -15 -88 -5 -3 -9 -34 -9 -70 0 -36 -4 -64
-10 -64 -5 0 -10 -9 -10 -20 0 -11 -4 -20 -10 -20 -5 0 -10 5 -10 10 0 6 -7
10 -15 10 -8 0 -25 6 -36 13 -17 10 -23 10 -26 0 -6 -16 -33 -17 -33 -3 0 6
-10 21 -22 34 -41 42 -123 138 -132 154 -5 10 -18 24 -28 33 -10 9 -18 20 -18
23 0 4 -6 13 -12 20 -7 8 -20 23 -28 35 -18 26 -27 27 -35 1 -3 -11 -13 -20
-21 -20 -8 0 -13 -4 -10 -8 11 -17 -55 -34 -112 -28 -31 4 -112 9 -179 12 -68
3 -123 10 -123 15 0 5 -59 9 -134 9 -92 0 -136 4 -138 11 -3 9 -10 9 -26 0
-14 -8 -22 -8 -22 -1 0 6 -41 10 -109 10 -63 0 -112 4 -116 10 -3 5 -36 10
-72 10 -60 0 -68 3 -94 30 -16 16 -29 36 -29 44 0 8 -5 18 -11 21 -9 6 -7 37
7 88 3 9 0 17 -6 17 -14 0 -40 25 -40 39 0 6 -9 11 -20 11 -11 0 -20 5 -20 10
0 6 -7 10 -15 10 -8 0 -15 5 -15 10 0 6 -8 10 -18 10 -9 0 -26 11 -36 25 -10
14 -27 25 -37 25 -10 0 -21 9 -24 20 -3 11 -11 20 -16 20 -10 0 -24 10 -64 47
-13 13 -29 23 -35 23 -5 0 -10 4 -10 9 0 5 -15 15 -33 22 -35 15 -77 52 -77
69 0 5 -6 10 -13 10 -7 0 -19 9 -27 20 -8 11 -21 20 -29 20 -14 0 -30 16 -66
64 -11 14 -24 26 -28 26 -10 0 -37 26 -37 35 0 10 -48 55 -60 55 -5 0 -9 6 -7
13 1 6 -4 11 -10 10 -7 -2 -13 4 -13 12 0 8 -4 15 -10 15 -13 0 -100 86 -100
99 0 5 -17 28 -37 49 -64 67 -73 81 -73 118 0 28 -8 43 -33 68 -41 37 -53 64
-29 62 10 0 17 6 16 15 -1 12 4 15 19 11 14 -4 18 -2 13 7 -5 8 0 14 13 18 11
3 18 10 14 16 -4 6 0 8 10 4 17 -6 24 7 10 16 -5 2 -2 2 5 0 22 -5 36 8 21 19
-10 7 -9 8 6 4 21 -6 45 5 48 20 1 5 5 8 10 7 4 -2 7 4 7 12 0 8 6 15 14 15
21 0 29 35 14 59 -7 12 -16 21 -20 21 -5 0 -8 9 -8 21 0 14 -5 19 -14 16 -9
-4 -12 0 -9 12 3 13 -3 20 -21 25 -17 4 -26 13 -26 26 0 27 -18 25 -22 -2 -3
-21 -4 -21 -9 4 -4 15 -2 25 2 22 5 -3 9 -2 9 3 -1 11 -30 49 -30 38 0 -5 -12
6 -26 23 -15 18 -32 32 -38 32 -6 0 -18 9 -26 20 -8 11 -22 20 -31 20 -10 0
-19 5 -21 10 -2 6 -13 12 -26 13 -14 1 -21 6 -17 15 4 10 -4 13 -29 11 -25 -3
-40 2 -53 17 -21 23 -113 44 -196 44 -44 0 -57 3 -57 15 0 8 -3 15 -7 15 -9 0
-33 49 -33 67 0 7 -4 13 -10 13 -5 0 -10 5 -10 10 0 6 3 9 8 9 4 -1 103 -1
220 0 139 1 212 5 212 11 0 10 -8 22 -37 55 -7 7 -13 23 -13 34 0 21 -4 21
-220 21 -140 0 -220 4 -220 10 0 6 -7 10 -15 10 -9 0 -15 10 -15 26 0 14 -4
23 -10 19 -6 -4 -10 8 -10 29 0 19 -5 38 -11 42 -6 3 -9 17 -6 30 2 14 -1 25
-9 28 -9 3 -14 21 -14 45 0 22 -4 41 -10 43 -5 2 -10 18 -12 36 -1 17 -6 32
-10 32 -4 0 -8 14 -8 31 0 17 -7 37 -15 46 -11 10 -14 25 -9 49 5 27 3 34 -10
34 -12 0 -16 11 -16 48 0 27 3 52 7 56 8 8 11 26 15 79 1 20 7 37 12 37 6 0 4
5 -4 10 -8 5 -10 10 -4 10 20 0 25 31 9 53 -19 28 -19 57 1 57 8 0 12 5 9 10
-3 6 1 10 10 10 9 0 16 7 14 18 -5 50 -20 47 301 47 165 1 300 -3 300 -8 0 -4
3 -6 8 -4 4 3 13 -1 19 -9 8 -8 9 -15 3 -19 -12 -7 -14 -105 -2 -105 4 0 9
-10 9 -22 1 -13 7 -24 14 -27 8 -2 7 -6 -2 -12 -12 -7 -11 -9 1 -9 12 0 12 -2
2 -9 -11 -7 -11 -11 2 -24 10 -10 16 -33 16 -62 0 -28 4 -44 10 -40 6 4 10
-10 10 -35 0 -25 4 -39 10 -35 11 7 13 -3 10 -54 -1 -22 2 -31 9 -27 7 5 11
-7 11 -33 0 -22 6 -46 14 -54 8 -8 18 -36 22 -62 6 -46 11 -55 42 -90 6 -7 12
-18 12 -24 0 -7 25 -11 65 -11 36 0 65 -3 66 -7 0 -5 2 -43 3 -86 2 -74 1 -78
-21 -83 -17 -5 -23 -13 -23 -35 0 -16 5 -29 10 -29 6 0 10 -9 10 -20 0 -11 5
-20 10 -20 6 0 10 4 10 9 0 5 6 11 14 14 10 4 13 -4 11 -34 -1 -24 3 -46 11
-54 8 -7 14 -21 14 -30 0 -12 6 -16 18 -13 20 6 47 -17 32 -27 -15 -9 -12 -19
15 -51 14 -16 25 -41 25 -56 0 -16 4 -28 9 -28 5 0 12 -11 15 -25 3 -13 17
-35 30 -49 14 -13 23 -26 20 -29 -3 -2 2 -7 11 -10 9 -4 15 -1 15 8 0 8 7 15
15 15 8 0 15 5 15 10 0 6 7 10 16 10 9 0 31 16 50 35 18 19 40 35 48 35 9 0
16 5 16 10 0 19 22 10 49 -19 14 -15 36 -31 49 -35 12 -4 22 -12 22 -17 0 -5
7 -9 15 -9 8 0 15 -4 15 -10 0 -5 7 -10 15 -10 8 0 15 -4 15 -10 0 -5 9 -10
20 -10 11 0 20 -4 20 -10 0 -5 11 -12 25 -16 14 -3 25 -10 25 -14 0 -5 14 -11
30 -15 16 -4 30 -11 30 -16 0 -5 7 -9 15 -9 8 0 15 -7 15 -15 0 -8 9 -15 20
-15 11 0 20 -4 20 -10 0 -5 11 -10 25 -10 24 0 25 3 25 60 0 33 4 60 10 60 6
0 10 34 10 83 l0 83 -35 14 c-19 8 -35 17 -35 22 0 4 -9 8 -20 8 -11 0 -20 5
-20 10 0 6 -5 10 -10 10 -10 0 -22 8 -55 37 -7 7 -21 13 -29 13 -9 0 -16 5
-16 10 0 6 -7 10 -16 10 -12 0 -10 5 9 20 14 11 28 20 31 20 3 0 20 14 38 30
17 17 35 30 39 30 4 0 19 11 33 25 14 14 30 25 36 25 5 0 10 4 10 9 0 5 9 12
19 16 20 6 31 28 52 108 7 26 17 47 21 47 4 0 8 6 8 14 0 23 24 26 196 26 108
0 163 3 159 10 -3 6 1 10 9 10 8 0 26 11 40 25 14 14 30 25 36 25 5 0 10 5 10
10 0 6 9 10 20 10 11 0 20 7 20 15 0 8 3 15 8 15 4 0 50 -44 102 -97 52 -53
121 -118 153 -145 l58 -48 -70 0 c-41 0 -71 4 -71 10 0 6 -55 10 -145 10 -90
0 -145 4 -145 10 0 6 -16 10 -35 10 -33 0 -35 2 -35 35 l0 35 -116 0 c-79 0
-119 -4 -128 -12 -31 -32 -46 -99 -46 -203 0 -63 -4 -105 -10 -105 -6 0 -10
-53 -10 -140 0 -87 -4 -140 -10 -140 -6 0 -10 -40 -10 -100 0 -93 -1 -100 -20
-100 -11 0 -20 5 -20 10 0 6 -7 10 -14 10 -8 0 -27 11 -42 25 -15 14 -33 25
-40 25 -8 0 -14 5 -14 10 0 6 -11 10 -25 10 -14 0 -25 5 -25 10 0 6 -25 10
-56 10 -34 0 -53 -4 -49 -10 3 -5 1 -10 -5 -10 -14 0 -49 -40 -50 -57 0 -7 -4
-13 -10 -13 -5 0 -10 -23 -10 -51 0 -49 15 -79 39 -79 6 0 11 -4 11 -10 0 -5
7 -10 15 -10 9 0 18 -7 21 -15 4 -8 12 -15 20 -15 8 0 14 -4 14 -10 0 -5 -9
-10 -20 -10 -22 0 -25 -2 -74 -45 -25 -22 -30 -35 -34 -85 -6 -83 2 -110 33
-110 14 0 25 -4 25 -10 0 -5 7 -10 15 -10 9 0 18 -7 21 -15 4 -8 12 -15 19
-15 8 0 13 -9 12 -20 -1 -14 -8 -20 -24 -20 -13 0 -23 -4 -23 -9 0 -5 -11 -19
-25 -32 -13 -13 -25 -30 -25 -37 0 -7 -4 -10 -10 -7 -15 9 -12 -77 4 -97 7
-10 21 -18 30 -18 10 0 14 -5 11 -10 -3 -6 3 -10 14 -10 12 0 21 -4 21 -8 0
-4 16 -14 35 -21 19 -7 35 -19 35 -27 0 -8 10 -14 25 -14 14 0 25 -4 25 -10 0
-5 9 -10 20 -10 11 0 20 -4 20 -10 0 -5 6 -10 13 -10 6 -1 23 -10 36 -21 22
-18 24 -23 13 -53 -7 -18 -12 -61 -12 -97 0 -35 -5 -106 -10 -157 -10 -89 -9
-95 12 -125 40 -57 40 -57 155 -57 60 0 113 -4 119 -9 5 -6 65 -12 134 -15
188 -7 401 -25 434 -36 16 -6 56 -10 90 -10 53 0 65 4 94 29 23 21 32 37 32
60 0 17 4 31 9 31 6 0 12 59 15 133 2 72 9 177 15 232 5 55 13 187 17 293 4
105 11 192 15 192 4 0 10 57 12 128 6 166 26 399 38 438 5 17 9 87 9 157 0 73
4 127 9 127 6 0 11 22 13 50 l3 49 88 -39 c94 -42 246 -91 339 -110 32 -6 60
-15 63 -20 3 -5 12 -7 19 -4 8 3 17 1 21 -5 4 -7 -4 -11 -19 -11 -26 0 -31
-17 -11 -32 6 -5 5 -8 -2 -8 -7 0 -13 -12 -13 -26 0 -14 4 -23 8 -20 4 3 25 1
45 -4 28 -6 37 -5 37 5 0 7 4 15 9 17 5 2 11 19 13 38 l5 35 119 -3 c567 -15
1083 224 1477 686 15 17 32 32 37 32 6 0 10 7 10 15 0 8 4 15 9 15 5 0 9 -6 8
-12 -1 -32 4 -48 14 -48 6 0 8 7 5 16 -8 20 12 57 26 48 7 -5 5 -12 -7 -20
-15 -11 -16 -16 -5 -29 14 -17 40 -20 40 -5 0 6 5 10 11 10 5 0 8 -4 4 -9 -3
-5 4 -12 15 -16 11 -4 18 -11 15 -16 -4 -5 -1 -9 4 -9 15 0 14 -37 0 -46 -13
-8 13 -26 44 -31 15 -3 15 0 5 17 -7 11 -16 20 -21 20 -4 0 -4 19 -1 43 4 23
3 39 -1 35 -4 -4 -16 2 -27 14 -16 19 -21 20 -43 8 -32 -17 -38 -10 -22 23 14
32 28 34 52 7 10 -11 24 -20 32 -20 8 0 12 -4 9 -9 -3 -5 2 -11 13 -14 14 -3
17 -11 13 -36 -4 -27 -1 -31 18 -31 15 0 20 5 17 14 -4 10 0 12 14 9 13 -4 19
0 19 11 0 9 5 16 10 16 6 0 10 7 10 15 0 7 7 18 16 23 18 10 74 3 74 -9 0 -5
11 -9 25 -9 14 0 25 -4 25 -10 0 -5 9 -10 20 -10 11 0 20 -4 20 -10 0 -5 7
-10 15 -10 9 0 18 -7 21 -15 4 -8 17 -15 30 -15 17 0 24 -6 24 -19 0 -11 -4
-22 -10 -26 -13 -8 -1 -35 27 -61 13 -12 23 -26 23 -33 0 -6 5 -11 10 -11 6 0
10 5 10 10 0 6 4 10 10 10 5 0 21 10 35 22 19 17 25 31 25 65 0 30 4 43 14 43
7 0 19 7 26 15 7 8 16 13 20 10 5 -3 15 2 23 10 9 8 23 15 31 15 9 0 16 5 16
10 0 6 9 10 20 10 11 0 20 5 20 10 0 6 7 10 15 10 9 0 15 9 15 25 0 14 5 25
10 25 6 0 10 -5 10 -11 0 -6 9 -9 19 -6 15 4 19 0 16 -17 -4 -20 -3 -20 9 -3
8 11 17 14 20 8 4 -5 2 -12 -4 -16 -13 -8 -13 -45 0 -45 6 0 10 -11 10 -25 0
-14 5 -25 10 -25 6 0 10 -9 10 -20 0 -11 -4 -20 -10 -20 -5 0 -10 -7 -10 -15
0 -8 9 -15 20 -15 11 0 20 -4 20 -9 0 -5 17 -11 38 -14 71 -11 102 -19 102
-28 0 -5 14 -9 30 -9 17 0 30 -4 30 -10 0 -5 11 -10 25 -10 14 0 25 -4 25 -10
0 -5 14 -10 30 -10 17 0 30 -4 30 -10 0 -5 16 -12 35 -16 19 -3 35 -10 35 -15
0 -5 11 -9 25 -9 14 0 25 -4 25 -10 0 -5 5 -10 10 -10 6 0 10 20 10 45 0 25
-4 45 -10 45 -5 0 -10 9 -10 19 0 11 -7 26 -15 35 -8 8 -15 28 -15 45 0 17 -4
31 -10 31 -5 0 -10 16 -10 35 0 19 -4 35 -10 35 -5 0 -10 14 -10 30 0 17 -4
30 -10 30 -5 0 -10 9 -10 21 0 11 -11 41 -25 66 -14 25 -23 48 -20 51 3 3 5 0
5 -6 0 -7 7 -12 15 -12 8 0 15 7 15 15 0 8 4 15 9 15 5 0 12 11 15 25 4 16 13
25 26 25 17 0 20 7 20 45 0 25 -4 45 -10 45 -5 0 -10 9 -10 20 0 11 -4 20 -10
20 -5 0 -10 7 -10 15 0 8 -4 15 -10 15 -5 0 -12 11 -16 25 -3 14 -10 25 -15
25 -5 0 -9 14 -9 30 0 17 -4 30 -10 30 -5 0 -10 12 -10 26 0 26 -20 54 -38 54
-6 0 -29 18 -51 39 -35 34 -41 46 -41 80 0 23 -4 41 -10 41 -5 0 -10 7 -10 15
0 8 -4 15 -10 15 -5 0 -10 14 -10 30 0 17 5 30 10 30 6 0 10 7 10 15 0 9 9 15
25 15 14 0 28 -7 31 -15 7 -18 24 -20 24 -2 0 7 11 21 25 31 14 10 25 25 25
32 0 8 5 14 10 14 6 0 10 9 10 20 0 11 5 20 10 20 6 0 10 7 10 15 0 9 11 33
25 55 14 22 25 51 25 65 0 14 5 25 10 25 6 0 10 14 10 30 0 33 17 59 38 60 6
0 12 -4 12 -10z m1156 -24 c19 -19 18 -23 -6 -29 -16 -4 -20 0 -20 19 0 28 6
30 26 10z m124 -111 c0 -30 -3 -35 -24 -35 -15 0 -26 7 -28 18 -7 32 4 52 28
52 21 0 24 -5 24 -35z m-6710 -29 c0 -3 -4 -8 -10 -11 -5 -3 -10 -1 -10 4 0 6
5 11 10 11 6 0 10 -2 10 -4z m-140 -95 c0 -11 5 -21 12 -23 6 -2 8 -10 4 -17
-11 -18 -44 18 -38 42 6 23 22 22 22 -2z m6836 5 c20 -20 18 -26 -11 -26 -27
0 -28 1 -19 24 8 20 12 20 30 2z m-6956 -42 c0 -8 -5 -12 -10 -9 -6 4 -8 11
-5 16 9 14 15 11 15 -7z m74 1 c-4 -8 1 -17 10 -21 9 -3 16 -10 16 -16 0 -5
-4 -6 -10 -3 -5 3 -10 0 -10 -8 0 -8 -12 -27 -26 -43 -19 -21 -24 -24 -19 -9
15 40 23 88 18 101 -3 8 1 14 11 14 9 0 13 -6 10 -15z m3732 -38 c57 -49 25
-127 -51 -127 -61 0 -93 43 -74 98 18 53 81 67 125 29z m-3856 5 c0 -14 -11
-21 -26 -15 -21 8 -17 23 6 23 11 0 20 -4 20 -8z m250 -2 c0 -5 -4 -10 -10
-10 -5 0 -10 5 -10 10 0 6 5 10 10 10 6 0 10 -4 10 -10z m6570 -31 c0 -44 -60
-67 -68 -26 -6 32 6 47 38 47 24 0 30 -4 30 -21z m130 -4 c0 -31 -29 -34 -47
-6 -13 21 -6 29 30 30 12 1 17 -7 17 -24z m-360 -10 c0 -8 -4 -15 -10 -15 -5
0 -7 7 -4 15 4 8 8 15 10 15 2 0 4 -7 4 -15z m100 -20 c0 -8 -4 -15 -10 -15
-5 0 -10 7 -10 15 0 8 5 15 10 15 6 0 10 -7 10 -15z m-6715 -5 c-26 -11 -35
-12 -35 -2 0 4 12 8 28 9 23 1 24 1 7 -7z m-985 -22 c0 -19 -2 -20 -10 -8 -13
19 -13 30 0 30 6 0 10 -10 10 -22z m1140 -23 c0 -7 -7 -15 -15 -19 -15 -5 -22
24 -9 37 9 9 24 -2 24 -18z m6646 -13 c-15 -15 -18 -15 -39 7 l-22 23 24 -7
c17 -5 21 -4 16 5 -6 9 -2 9 15 0 21 -11 21 -13 6 -28z m-91 -2 c3 -5 2 -10
-4 -10 -5 0 -13 5 -16 10 -3 6 -2 10 4 10 5 0 13 -4 16 -10z m-7000 -10 c3 -5
-1 -10 -10 -10 -9 0 -13 5 -10 10 3 6 8 10 10 10 2 0 7 -4 10 -10z m-738 -52
c-3 -8 -6 -5 -6 6 -1 11 2 17 5 13 3 -3 4 -12 1 -19z m823 13 c0 -6 -4 -13
-10 -16 -5 -3 -10 1 -10 9 0 9 5 16 10 16 6 0 10 -4 10 -9z m410 -8 c0 -10 -4
-14 -8 -8 -4 6 -11 13 -16 18 -5 4 -2 7 7 7 10 0 17 -8 17 -17z m6420 2 c0 -8
-9 -15 -20 -15 -11 0 -20 7 -20 15 0 8 9 15 20 15 11 0 20 -7 20 -15z m175
-15 c3 -5 1 -10 -4 -10 -6 0 -11 5 -11 10 0 6 2 10 4 10 3 0 8 -4 11 -10z
m-7798 -22 c-3 -8 -6 -5 -6 6 -1 11 2 17 5 13 3 -3 4 -12 1 -19z m933 12 c0
-5 -7 -10 -15 -10 -8 0 -15 5 -15 10 0 6 7 10 15 10 8 0 15 -4 15 -10z m-140
-26 c0 -8 -4 -14 -10 -14 -5 0 -10 9 -10 21 0 11 5 17 10 14 6 -3 10 -13 10
-21z m200 6 c0 -5 -8 -10 -17 -10 -15 0 -16 2 -3 10 19 12 20 12 20 0z m337
-22 c-3 -7 -5 -2 -5 12 0 14 2 19 5 13 2 -7 2 -19 0 -25z m6403 7 c0 -8 -7
-15 -15 -15 -26 0 -18 20 13 29 1 1 2 -6 2 -14z m-125 -5 c-3 -5 -11 -10 -16
-10 -6 0 -7 5 -4 10 3 6 11 10 16 10 6 0 7 -4 4 -10z m-1545 -20 c0 -5 13 -10
29 -10 16 0 34 -7 41 -15 7 -8 20 -15 29 -15 9 0 22 -5 28 -11 6 -6 46 -13 89
-14 43 -2 80 -8 82 -13 2 -6 -4 -24 -12 -41 -9 -16 -16 -39 -16 -51 0 -11 -4
-20 -10 -20 -5 0 -10 -13 -10 -29 0 -17 -4 -33 -10 -36 -5 -3 -10 -15 -10 -26
0 -10 -4 -19 -10 -19 -5 0 -10 -14 -10 -30 0 -18 -6 -33 -15 -36 -8 -4 -12
-10 -9 -15 3 -5 -2 -9 -10 -9 -9 0 -16 -7 -16 -15 0 -8 -4 -15 -8 -15 -11 0
-52 -35 -52 -44 0 -11 -27 -36 -39 -36 -6 0 -11 -4 -11 -10 0 -5 -9 -10 -20
-10 -11 0 -20 -3 -20 -8 0 -4 -16 -16 -35 -26 -43 -23 -174 -26 -200 -5 -8 8
-22 20 -30 27 -7 6 -18 12 -24 12 -6 0 -39 29 -74 65 -81 84 -87 91 -87 110 0
9 -4 13 -10 10 -6 -4 -10 7 -10 24 0 17 -4 31 -10 31 -5 0 -10 11 -10 25 0 14
-4 25 -9 25 -19 0 -22 68 -5 110 18 44 43 60 95 60 16 0 29 5 29 10 0 6 8 10
18 10 9 0 26 7 36 15 11 8 30 15 44 15 13 0 20 4 17 10 -4 6 40 10 124 10 81
0 131 -4 131 -10z m1727 -22 c-3 -7 -5 -2 -5 12 0 14 2 19 5 13 2 -7 2 -19 0
-25z m-6847 -3 c0 -8 -4 -15 -9 -15 -13 0 -22 16 -14 24 11 11 23 6 23 -9z
m6550 -15 c0 -5 -4 -10 -10 -10 -5 0 -10 5 -10 10 0 6 5 10 10 10 6 0 10 -4
10 -10z m-90 -13 c0 -8 -6 -14 -13 -14 -8 0 -14 6 -14 14 0 7 6 13 14 13 7 0
13 -6 13 -13z m-6460 -52 c0 -25 -4 -45 -10 -45 -5 0 -10 20 -10 45 0 25 5 45
10 45 6 0 10 -20 10 -45z m46 10 c-5 -14 -9 -15 -21 -5 -12 10 -13 16 -4 27
15 18 34 1 25 -22z m6636 5 c-4 -26 -32 -45 -32 -21 0 5 -3 18 -7 28 -6 16 -5
17 12 3 10 -8 16 -10 12 -3 -4 6 -1 14 5 16 7 3 13 6 14 6 0 1 -1 -12 -4 -29z
m108 20 c0 -5 -4 -10 -10 -10 -5 0 -10 5 -10 10 0 6 5 10 10 10 6 0 10 -4 10
-10z m-263 -26 c-9 -9 -28 6 -21 18 4 6 10 6 17 -1 6 -6 8 -13 4 -17z m-57
-16 c0 -4 -13 -8 -30 -8 -23 0 -30 5 -30 19 0 17 3 18 30 8 17 -6 30 -15 30
-19z m-6606 -20 c8 -6 8 -8 0 -8 -18 0 -37 28 -28 42 6 10 10 8 12 -7 3 -11 9
-23 16 -27z m91 12 c-5 -8 -11 -8 -17 -2 -6 6 -7 16 -3 22 5 8 11 8 17 2 6 -6
7 -16 3 -22z m-145 11 c0 -6 -5 -13 -12 -17 -6 -4 -8 -3 -4 4 3 6 -2 13 -11
15 -14 4 -13 5 5 6 12 0 22 -3 22 -8z m91 -6 c1 -5 5 -15 11 -22 10 -12 3 -33
-11 -33 -8 0 -31 45 -31 61 0 13 31 7 31 -6z m199 5 c12 -7 10 -9 -8 -7 -12 0
-22 5 -22 9 0 11 12 10 30 -2z m6489 -15 c2 -13 -1 -16 -13 -12 -10 4 -16 1
-16 -8 0 -8 -4 -15 -10 -15 -5 0 -7 7 -5 15 3 8 7 22 10 31 6 20 29 13 34 -11z
m181 16 c0 -5 2 -24 5 -42 6 -33 6 -33 -9 6 -19 48 -18 45 -6 45 6 0 10 -4 10
-9z m50 -7 c0 -2 -7 -4 -15 -4 -8 0 -15 4 -15 10 0 5 7 7 15 4 8 -4 15 -8 15
-10z m-7743 0 c-3 -3 -12 -4 -19 -1 -8 3 -5 6 6 6 11 1 17 -2 13 -5z m1160
-26 c-3 -8 -6 -5 -6 6 -1 11 2 17 5 13 3 -3 4 -12 1 -19z m-72 -7 c7 -12 -12
-24 -25 -16 -11 7 -4 25 10 25 5 0 11 -4 15 -9z m6579 -22 c3 -2 -3 -5 -12 -5
-9 -1 -25 -4 -34 -9 -13 -5 -18 -3 -18 8 0 10 9 14 29 13 16 -1 32 -4 35 -7z
m-254 -9 c0 -5 -5 -10 -11 -10 -13 0 -35 -22 -42 -41 -2 -8 -3 -1 -1 14 2 15
0 26 -4 24 -4 -3 -16 0 -27 4 -15 7 -10 8 17 5 21 -3 40 0 43 5 8 12 25 12 25
-1z m-6363 -22 c-3 -8 -6 -5 -6 6 -1 11 2 17 5 13 3 -3 4 -12 1 -19z m-197 2
c0 -5 -7 -10 -15 -10 -8 0 -15 5 -15 10 0 6 7 10 15 10 8 0 15 -4 15 -10z
m6620 -6 c0 -17 -22 -14 -28 4 -2 7 3 12 12 12 9 0 16 -7 16 -16z m225 -14
c-17 -6 -17 -7 4 -13 20 -5 21 -8 10 -29 -11 -20 -14 -20 -17 -5 -2 9 -8 17
-13 17 -5 0 -9 11 -9 24 0 20 4 23 22 18 20 -5 21 -6 3 -12z m-7712 -31 c-9
-9 -12 -7 -10 9 1 14 5 18 11 12 7 -7 6 -14 -1 -21z m7607 5 c0 -8 -7 -14 -15
-14 -17 0 -18 2 -9 24 7 18 24 12 24 -10z m-6480 1 c0 -8 -9 -15 -20 -15 -11
0 -20 7 -20 15 0 8 9 15 20 15 11 0 20 -7 20 -15z m70 0 c0 -8 -9 -15 -20 -15
-13 0 -18 5 -14 15 4 8 12 15 20 15 8 0 14 -7 14 -15z m95 5 c-3 -5 -10 -10
-16 -10 -5 0 -9 5 -9 10 0 6 7 10 16 10 8 0 12 -4 9 -10z m-355 -30 c0 -5 -7
-10 -16 -10 -8 0 -12 5 -9 10 3 6 10 10 16 10 5 0 9 -4 9 -10z m6400 0 c0 -5
-2 -10 -4 -10 -3 0 -8 5 -11 10 -3 6 -1 10 4 10 6 0 11 -4 11 -10z m60 0 c0
-5 -4 -10 -10 -10 -5 0 -10 5 -10 10 0 6 5 10 10 10 6 0 10 -4 10 -10z m216
-15 c-8 -8 -18 -15 -22 -15 -3 0 -1 7 6 15 7 8 17 15 22 15 5 0 3 -7 -6 -15z
m-6626 -5 c18 -11 22 -60 4 -60 -7 0 -10 8 -7 20 3 12 -1 22 -11 26 -9 3 -16
10 -16 15 0 11 11 11 30 -1z m130 0 c0 -5 -4 -10 -10 -10 -5 0 -10 5 -10 10 0
6 5 10 10 10 6 0 10 -4 10 -10z m6325 0 c-3 -5 -10 -10 -16 -10 -5 0 -9 5 -9
10 0 6 7 10 16 10 8 0 12 -4 9 -10z m235 -10 c0 -5 -2 -10 -4 -10 -3 0 -8 5
-11 10 -3 6 -1 10 4 10 6 0 11 -4 11 -10z m-6740 -31 c0 -11 -24 -39 -34 -39
-12 0 -6 38 7 43 20 9 27 8 27 -4z m6480 3 c0 -13 -39 -42 -45 -33 -9 16 7 41
26 41 10 0 19 -3 19 -8z m-5163 -27 c0 -8 -9 -15 -19 -15 -10 0 -18 7 -18 15
0 8 8 15 18 15 10 0 19 -7 19 -15z m-1417 -5 c0 -5 -4 -10 -10 -10 -5 0 -10 5
-10 10 0 6 5 10 10 10 6 0 10 -4 10 -10z m167 -22 c-3 -8 -6 -5 -6 6 -1 11 2
17 5 13 3 -3 4 -12 1 -19z m5259 -26 c-15 -15 -15 -15 -4 10 7 15 15 23 17 17
2 -6 -4 -18 -13 -27z m51 16 c-3 -8 -6 -5 -6 6 -1 11 2 17 5 13 3 -3 4 -12 1
-19z m133 12 c12 -8 11 -10 -7 -10 -13 0 -23 5 -23 10 0 13 11 13 30 0z m100
0 c0 -5 -4 -10 -10 -10 -5 0 -10 5 -10 10 0 6 5 10 10 10 6 0 10 -4 10 -10z
m-5633 -25 c0 -8 -4 -12 -9 -9 -4 3 -8 9 -8 15 0 5 4 9 8 9 5 0 9 -7 9 -15z
m6440 -17 c-3 -7 -5 -2 -5 12 0 14 2 19 5 13 2 -7 2 -19 0 -25z m-5101 3 c0
-11 -5 -17 -13 -14 -17 6 -17 20 0 26 6 3 12 6 12 6 1 1 1 -7 1 -18z m4214 -2
c0 -5 -4 -9 -10 -9 -5 0 -10 7 -10 16 0 8 5 12 10 9 6 -3 10 -10 10 -16z m926
-6 c-7 -7 -26 7 -26 19 0 6 6 6 15 -2 9 -7 13 -15 11 -17z m-822 1 c4 -11 1
-14 -11 -12 -9 2 -18 9 -21 16 -6 18 25 15 32 -4z m-319 -12 c-3 -3 -11 0 -18
7 -9 10 -8 11 6 5 10 -3 15 -9 12 -12z m-5081 -7 c-7 -16 -24 -21 -24 -6 0 8
7 13 27 20 1 1 0 -6 -3 -14z m5061 -14 c-6 -5 -25 10 -25 20 0 5 6 4 14 -3 8
-7 12 -15 11 -17z m315 -5 c0 -8 -6 -16 -13 -19 -8 -3 -13 3 -13 14 0 11 6 19
13 19 7 0 13 -6 13 -14z m1120 0 c0 -2 -9 -6 -20 -9 -11 -3 -18 -1 -14 4 5 9
34 13 34 5z m-1220 -21 c0 -10 -10 -15 -28 -15 -37 0 -37 24 0 27 19 2 28 -3
28 -12z m925 5 c3 -5 1 -10 -4 -10 -6 0 -11 5 -11 10 0 6 2 10 4 10 3 0 8 -4
11 -10z m125 0 c24 -15 7 -18 -20 -3 -14 7 -18 13 -10 13 8 0 22 -4 30 -10z
m-6400 -41 c0 -6 -6 -17 -14 -25 -18 -17 -29 4 -12 23 14 15 26 16 26 2z
m5137 -11 c-3 -8 -6 -5 -6 6 -1 11 2 17 5 13 3 -3 4 -12 1 -19z m123 1 c0 -5
-4 -9 -10 -9 -5 0 -10 7 -10 16 0 8 5 12 10 9 6 -3 10 -10 10 -16z m-5140 1
c0 -5 -7 -10 -16 -10 -8 0 -12 5 -9 10 3 6 10 10 16 10 5 0 9 -4 9 -10z m4164
1 c3 -5 -3 -11 -13 -14 -14 -3 -18 -1 -14 9 6 16 19 18 27 5z m-4142 -29 c-7
-2 -12 -10 -12 -18 0 -8 -7 -14 -15 -14 -19 0 -19 6 3 28 9 11 21 16 27 14 5
-3 4 -7 -3 -10z m5176 9 c10 -6 7 -10 -12 -15 -14 -3 -26 -13 -26 -20 0 -9 -7
-12 -19 -9 -17 4 -17 6 3 29 23 25 33 29 54 15z m-5302 -38 c-11 -11 -19 6
-11 24 8 17 8 17 12 0 3 -10 2 -21 -1 -24z m6518 21 c3 -8 2 -12 -4 -9 -6 3
-10 10 -10 16 0 14 7 11 14 -7z m-5337 -16 c-3 -8 -6 -5 -6 6 -1 11 2 17 5 13
3 -3 4 -12 1 -19z m-1157 -38 c0 -5 -5 -10 -11 -10 -5 0 -7 -5 -3 -11 4 -7 1
-10 -7 -7 -23 8 -23 38 0 38 12 0 21 -4 21 -10z m-166 -44 c-3 -8 -16 -16 -29
-18 -20 -4 -22 -3 -12 14 14 21 49 25 41 4z m175 -37 c-15 -9 -32 -2 -24 11 3
5 13 6 21 3 12 -4 13 -8 3 -14z m56 11 c-3 -5 -10 -10 -16 -10 -5 0 -9 5 -9
10 0 6 7 10 16 10 8 0 12 -4 9 -10z m-110 -100 c3 -5 1 -10 -4 -10 -6 0 -11 5
-11 10 0 6 2 10 4 10 3 0 8 -4 11 -10z m95 -5 c0 -8 -4 -15 -9 -15 -13 0 -22
16 -14 24 11 11 23 6 23 -9z m-115 -25 c3 -5 1 -10 -4 -10 -6 0 -11 5 -11 10
0 6 2 10 4 10 3 0 8 -4 11 -10z m135 -26 c0 -8 -4 -14 -10 -14 -5 0 -10 9 -10
21 0 11 5 17 10 14 6 -3 10 -13 10 -21z m-70 -10 c0 -8 -5 -12 -10 -9 -6 4 -8
11 -5 16 9 14 15 11 15 -7z m-60 -8 c0 -2 -7 -9 -15 -16 -13 -11 -14 -10 -9 4
5 14 24 23 24 12z m22 -68 c-8 -8 -17 -8 -34 0 -22 10 -21 11 12 11 26 1 31
-2 22 -11z m-47 -18 c-3 -5 -12 -10 -18 -10 -7 0 -6 4 3 10 19 12 23 12 15 0z
m-15 -60 c0 -5 -5 -10 -11 -10 -5 0 -7 5 -4 10 3 6 8 10 11 10 2 0 4 -4 4 -10z
m1147 -100 c0 -16 -4 -30 -9 -30 -4 0 -8 14 -8 30 0 17 4 30 8 30 5 0 9 -13 9
-30z m43 20 c0 -5 -4 -10 -10 -10 -5 0 -10 5 -10 10 0 6 5 10 10 10 6 0 10 -4
10 -10z m37 -52 c-2 -13 -4 -3 -4 22 0 25 2 35 4 23 2 -13 2 -33 0 -45z m143
52 c0 -5 -7 -10 -15 -10 -8 0 -15 -7 -15 -15 0 -8 5 -15 10 -15 6 0 10 -7 10
-15 0 -8 -9 -15 -20 -15 -17 0 -20 7 -20 40 0 36 3 40 25 40 14 0 25 -4 25
-10z m-90 -27 c0 -35 -16 -45 -28 -19 -11 25 -7 36 15 36 7 0 13 -8 13 -17z
m130 -13 c0 -16 -4 -30 -10 -30 -5 0 -10 14 -10 30 0 17 5 30 10 30 6 0 10
-13 10 -30z m226 16 c8 -8 14 -20 14 -26 0 -18 -27 -40 -50 -40 -12 0 -18 5
-15 10 3 6 15 10 26 10 12 0 19 7 19 20 0 13 -7 20 -20 20 -11 0 -20 5 -20 10
0 15 29 12 46 -4z m-1556 -22 c0 -2 -7 -4 -15 -4 -8 0 -15 4 -15 10 0 5 7 7
15 4 8 -4 15 -8 15 -10z m1460 12 c0 -2 3 -11 6 -20 5 -13 -1 -16 -30 -16 -39
0 -42 4 -23 25 11 13 47 21 47 11z m37 -28 c-3 -7 -5 -2 -5 12 0 14 2 19 5 13
2 -7 2 -19 0 -25z m123 2 c0 -16 -4 -30 -10 -30 -5 0 -10 14 -10 30 0 17 5 30
10 30 6 0 10 -13 10 -30z m135 20 c3 -5 -1 -10 -9 -10 -11 0 -16 -9 -16 -30 0
-16 -4 -30 -10 -30 -5 0 -10 18 -10 40 0 33 3 40 19 40 11 0 23 -4 26 -10z
m-99 -47 c-11 -11 -19 6 -11 24 8 17 8 17 12 0 3 -10 2 -21 -1 -24z m-1601 17
c3 -5 1 -10 -4 -10 -6 0 -11 5 -11 10 0 6 2 10 4 10 3 0 8 -4 11 -10z m-597
-141 c-3 -8 -7 -3 -11 10 -4 17 -3 21 5 13 5 -5 8 -16 6 -23z m-26 -11 c-9 -9
-12 -7 -12 12 0 19 3 21 12 12 9 -9 9 -15 0 -24z m38 -34 c0 -8 -7 -14 -15
-14 -15 0 -21 21 -9 33 10 9 24 -2 24 -19z m1620 -17 c16 -9 20 -23 20 -65 0
-68 -16 -87 -68 -78 -20 4 -54 9 -74 12 l-38 6 0 54 c0 78 19 98 88 90 29 -4
62 -12 72 -19z m-1578 -70 c-6 -13 -22 3 -22 23 0 10 3 27 7 37 6 14 9 10 13
-17 4 -19 4 -38 2 -43z m111 -30 c-4 -6 -11 -2 -16 11 -6 12 -14 22 -19 22 -4
0 -8 8 -8 18 0 13 6 11 25 -12 13 -16 22 -33 18 -39z m-215 17 c-9 -10 -24
-14 -33 -10 -23 9 -9 26 23 26 24 0 25 -1 10 -16z m1972 6 c19 -6 95 -13 168
-17 72 -3 132 -10 132 -15 0 -4 5 -8 11 -8 18 0 46 -33 31 -38 -6 -2 -12 -12
-12 -23 0 -17 -8 -19 -90 -19 -53 0 -90 4 -90 10 0 6 -53 10 -139 10 -83 0
-142 4 -146 10 -3 6 -20 10 -36 10 -17 0 -37 6 -45 14 -16 17 -19 46 -4 46 6
0 10 7 10 15 0 12 16 15 88 15 48 0 103 -5 122 -10z m1338 -2 c-7 -19 -38 -22
-38 -4 0 10 9 16 21 16 12 0 19 -5 17 -12z m32 -23 c0 -8 -4 -15 -10 -15 -5 0
-10 7 -10 15 0 8 5 15 10 15 6 0 10 -7 10 -15z m-3060 -5 c0 -5 -4 -10 -10
-10 -5 0 -10 5 -10 10 0 6 5 10 10 10 6 0 10 -4 10 -10z m3170 0 c0 -5 -4 -10
-10 -10 -5 0 -10 5 -10 10 0 6 5 10 10 10 6 0 10 -4 10 -10z m-3210 -15 c0 -8
-4 -15 -9 -15 -13 0 -22 16 -14 24 11 11 23 6 23 -9z m3006 -52 c-2 -3 -13 0
-23 6 -10 6 -12 11 -5 11 6 0 12 8 13 18 0 12 3 10 10 -7 5 -13 7 -26 5 -28z
m110 20 c-10 -10 -19 5 -10 18 6 11 8 11 12 0 2 -7 1 -15 -2 -18z m-3223 -49
c-16 -25 -16 -27 2 -40 10 -8 15 -17 10 -21 -4 -5 -10 -2 -12 5 -3 6 -11 12
-18 12 -7 0 -15 9 -18 21 -4 15 0 23 14 26 10 3 19 9 19 14 0 5 5 9 10 9 6 0
3 -12 -7 -26z m3187 11 c0 -8 -4 -15 -10 -15 -5 0 -10 7 -10 15 0 8 5 15 10
15 6 0 10 -7 10 -15z m255 5 c3 -5 1 -10 -4 -10 -6 0 -11 5 -11 10 0 6 2 10 4
10 3 0 8 -4 11 -10z m-3332 -7 c-7 -2 -19 -2 -25 0 -7 3 -2 5 12 5 14 0 19 -2
13 -5z m1398 -45 l39 -11 0 -59 c0 -83 -28 -106 -93 -75 -20 9 -25 17 -20 35
6 26 -12 30 -25 5 -9 -15 -11 -15 -26 -1 -17 18 -22 78 -6 78 6 0 10 9 10 20
0 17 7 20 41 20 23 0 59 -5 80 -12z m1987 -13 c1 -18 -2 -23 -14 -18 -13 5
-13 7 -2 14 10 7 11 9 0 9 -7 0 -10 5 -7 10 11 17 21 11 23 -15z m-3388 -15
c0 -31 -16 -41 -26 -15 -8 19 2 45 16 45 5 0 10 -13 10 -30z m165 20 c3 -5 1
-10 -4 -10 -6 0 -11 5 -11 10 0 6 2 10 4 10 3 0 8 -4 11 -10z m-215 -10 c0 -5
-4 -10 -10 -10 -5 0 -10 5 -10 10 0 6 5 10 10 10 6 0 10 -4 10 -10z m150 0 c0
-5 -7 -10 -16 -10 -8 0 -12 5 -9 10 3 6 10 10 16 10 5 0 9 -4 9 -10z m-250
-30 c0 -5 -5 -10 -11 -10 -5 0 -7 5 -4 10 3 6 8 10 11 10 2 0 4 -4 4 -10z m36
-7 c1 -10 4 -27 8 -38 5 -15 4 -14 -5 3 -7 12 -16 22 -21 22 -5 0 -6 -4 -3
-10 3 -5 1 -10 -4 -10 -16 0 -14 11 6 32 20 22 19 22 19 1z m5341 11 c-3 -3
-12 -4 -19 -1 -8 3 -5 6 6 6 11 1 17 -2 13 -5z m-1744 -29 c-7 -21 -13 -19
-13 6 0 11 4 18 10 14 5 -3 7 -12 3 -20z m-49 -11 c3 -8 -1 -14 -8 -14 -8 0
-16 9 -19 19 -6 23 18 18 27 -5z m-1694 -6 c78 -17 97 -40 66 -81 -13 -16 -27
-18 -128 -14 -178 7 -191 13 -180 86 l5 33 91 -6 c50 -4 116 -12 146 -18z
m1640 7 c0 -8 -4 -15 -10 -15 -5 0 -7 7 -4 15 4 8 8 15 10 15 2 0 4 -7 4 -15z
m-3330 -25 c0 -5 -11 -10 -25 -10 -14 0 -25 5 -25 10 0 6 11 10 25 10 14 0 25
-4 25 -10z m5130 0 c0 -5 -9 -10 -21 -10 -11 0 -17 5 -14 10 3 6 13 10 21 10
8 0 14 -4 14 -10z m265 -43 c0 -7 -6 -17 -14 -23 -12 -9 -17 -7 -26 10 -9 18
-8 22 10 27 22 6 30 3 30 -14z m22 1 c-3 -8 -6 -5 -6 6 -1 11 2 17 5 13 3 -3
4 -12 1 -19z m-4167 2 c0 -5 5 -10 11 -10 6 0 17 -6 24 -12 33 -30 45 -38 55
-38 5 0 10 -9 10 -20 0 -11 5 -20 10 -20 6 0 10 -9 10 -20 0 -11 -4 -20 -10
-20 -5 0 -10 -11 -10 -25 0 -16 -6 -25 -15 -25 -8 0 -15 -4 -15 -10 0 -5 -11
-10 -25 -10 -14 0 -25 -4 -25 -10 0 -5 -9 -10 -20 -10 -11 0 -20 5 -20 10 0 6
-9 10 -20 10 -11 0 -20 5 -20 10 0 6 -9 10 -20 10 -27 0 -74 49 -78 82 -2 14
4 32 12 41 9 9 16 18 16 22 0 3 10 17 23 30 16 18 33 24 65 24 23 1 42 -3 42
-9z m3910 -10 c0 -11 -5 -20 -11 -20 -5 0 -7 5 -4 10 3 6 1 10 -5 10 -6 0 -8
5 -5 10 10 17 25 11 25 -10z m-5260 -32 c0 -12 -6 -9 -26 13 -19 22 -19 22 4
8 12 -8 22 -17 22 -21z m3150 16 c0 -8 -4 -12 -10 -9 -5 3 -10 10 -10 16 0 5
5 9 10 9 6 0 10 -7 10 -16z m2150 1 c0 -8 -4 -15 -10 -15 -5 0 -10 7 -10 15 0
8 5 15 10 15 6 0 10 -7 10 -15z m-1080 -5 c0 -5 8 -10 18 -10 10 0 24 -10 32
-21 8 -12 21 -27 28 -35 6 -7 12 -21 12 -31 0 -25 -34 -91 -59 -114 -40 -38
-171 -12 -171 34 0 9 -4 17 -10 17 -5 0 -10 23 -10 50 0 52 15 76 66 107 23
14 94 17 94 3z m1533 -30 c3 -11 1 -20 -3 -20 -5 0 -11 8 -13 18 -4 13 -5 12
-6 -5 -1 -17 -6 -21 -23 -17 -49 9 -92 14 -80 8 20 -9 15 -54 -6 -54 -15 0
-18 6 -14 30 5 37 9 39 66 41 25 1 46 6 46 11 0 17 28 7 33 -12z m-796 -22
c-3 -7 -5 -2 -5 12 0 14 2 19 5 13 2 -7 2 -19 0 -25z m63 18 c0 -11 -19 -15
-25 -6 -3 5 1 10 9 10 9 0 16 -2 16 -4z m555 -5 c6 -11 -22 -19 -47 -13 -10 2
-15 8 -12 13 7 12 51 12 59 0z m-290 -32 c-9 -14 -34 2 -28 17 4 11 9 12 19 3
8 -6 11 -15 9 -20z m-55 -9 c12 -8 11 -10 -7 -10 -13 0 -23 5 -23 10 0 13 11
13 30 0z m-300 -20 c-20 -13 -33 -13 -25 0 3 6 14 10 23 10 15 0 15 -2 2 -10z
m880 0 c0 -5 -4 -10 -9 -10 -6 0 -13 5 -16 10 -3 6 1 10 9 10 9 0 16 -4 16
-10z m-2452 -56 c6 -7 12 -24 12 -39 0 -20 6 -27 30 -32 17 -3 29 -8 26 -11
-8 -7 21 -32 38 -32 9 0 16 -4 16 -10 0 -5 7 -10 15 -10 8 0 15 -7 15 -15 0
-8 5 -15 10 -15 6 0 10 -25 10 -55 l0 -55 -47 0 c-76 0 -93 8 -93 41 l0 29
-215 0 c-118 0 -215 2 -215 4 0 18 15 36 31 36 11 0 22 7 25 15 4 10 20 15 45
15 32 0 39 3 39 20 0 16 -7 20 -30 20 -21 0 -30 5 -30 16 0 8 5 12 10 9 6 -3
10 1 10 9 0 11 10 16 31 16 35 0 59 -20 59 -49 0 -16 6 -21 25 -21 18 0 25 5
25 20 0 11 -7 20 -15 20 -8 0 -15 7 -15 15 0 8 7 15 15 15 8 0 15 -7 15 -15 0
-16 62 -21 95 -9 23 9 0 24 -38 24 -16 0 -35 7 -43 15 -13 13 -14 17 -1 29 25
26 119 26 145 0z m-1633 6 c4 -6 62 -10 141 -10 83 0 134 -4 134 -10 0 -6 28
-10 64 -10 57 0 64 -2 69 -22 4 -12 4 -33 1 -45 -6 -23 -9 -23 -150 -23 -89 0
-144 4 -144 10 0 6 -52 10 -135 10 -146 0 -175 9 -175 56 0 50 7 54 100 54 49
0 92 -4 95 -10z m1295 -109 c0 -11 -48 -24 -60 -16 -21 13 -8 25 25 25 19 0
35 -4 35 -9z m-1690 -21 c0 -5 6 -10 14 -10 19 0 76 -54 76 -72 0 -8 5 -19 12
-26 9 -9 9 -15 0 -24 -14 -14 -16 -58 -3 -58 17 0 39 73 30 102 -8 28 -8 28
42 28 27 0 49 -4 49 -9 0 -6 61 -12 138 -15 208 -7 437 -26 440 -37 2 -5 9 -9
16 -9 21 0 36 -22 26 -39 -4 -9 -11 -79 -15 -156 -4 -77 -11 -144 -16 -149 -5
-6 -9 -38 -9 -73 l0 -63 -165 0 c-97 0 -165 4 -165 9 0 6 -59 12 -132 15 -196
7 -380 24 -405 37 -29 15 -31 49 -4 49 11 0 23 -4 26 -10 10 -17 45 -11 78 12
52 36 57 44 57 87 0 37 2 41 26 41 25 0 26 -2 22 -47 -2 -27 -6 -55 -9 -63 -3
-10 5 -16 24 -18 l27 -3 0 65 0 66 30 0 c25 0 30 4 30 25 0 23 -3 25 -51 25
-31 0 -48 4 -44 10 4 6 -7 10 -24 10 -17 0 -31 -4 -31 -10 0 -5 -9 -10 -20
-10 -11 0 -20 5 -20 10 0 6 -7 10 -15 10 -8 0 -15 5 -15 10 0 6 -9 10 -20 10
-11 0 -20 7 -20 15 0 8 -4 15 -10 15 -5 0 -10 5 -10 10 0 6 23 10 51 10 31 0
56 6 65 15 18 17 10 37 -11 29 -8 -4 -12 -10 -9 -15 3 -5 -22 -9 -55 -9 -34 0
-61 4 -61 10 0 6 -7 10 -15 10 -8 0 -15 5 -15 10 0 6 -7 10 -16 10 -51 0 -59
111 -12 165 15 16 118 21 118 5z m3003 -10 c9 -11 17 -31 17 -45 0 -23 -4 -25
-45 -25 -38 0 -45 3 -45 20 0 11 -4 20 -10 20 -5 0 -10 -9 -10 -20 0 -11 5
-20 10 -20 6 0 10 -5 10 -11 0 -19 -29 -40 -57 -42 -26 -2 -28 1 -31 43 -4 67
26 100 93 100 38 0 55 -5 68 -20z m-253 -140 c0 -90 6 -103 34 -75 8 8 24 15
35 15 12 0 21 5 21 10 0 6 9 10 20 10 11 0 20 4 20 9 0 5 11 12 25 15 14 4 25
10 25 15 0 5 19 12 42 16 39 7 48 12 83 43 7 6 21 12 29 12 9 0 16 5 16 10 0
6 7 10 15 10 12 0 15 -17 15 -91 0 -79 2 -90 16 -85 9 3 20 6 25 6 6 0 7 5 4
10 -4 6 5 10 19 10 14 0 26 5 26 10 0 6 9 10 19 10 11 0 23 5 26 10 3 6 15 10
26 10 10 0 19 5 19 10 0 6 20 15 45 22 25 7 45 16 45 20 0 4 9 8 20 8 11 0 20
7 20 16 0 8 4 13 9 9 5 -3 16 2 24 10 9 8 25 15 36 15 21 0 21 -2 21 -420 l0
-420 -590 0 -590 0 0 335 0 335 25 0 c14 0 25 5 25 10 0 6 9 10 20 10 11 0 20
5 20 10 0 6 9 10 21 10 11 0 27 6 34 13 35 30 44 35 83 42 23 4 42 11 42 16 0
5 6 9 14 9 8 0 21 6 28 13 23 21 52 36 71 36 15 1 17 -10 17 -89z m-550 -105
l0 -45 -64 0 c-68 0 -76 6 -76 54 0 33 7 36 77 36 l63 0 0 -45z m-2240 -35 c0
-5 7 -10 15 -10 8 0 29 -12 45 -27 26 -23 30 -33 30 -80 0 -50 -1 -53 -25 -53
-14 0 -25 -4 -25 -10 0 -5 -16 -10 -35 -10 -19 0 -35 5 -35 10 0 6 -9 10 -20
10 -11 0 -20 5 -20 10 0 6 -6 10 -14 10 -17 0 -26 22 -26 60 0 41 20 80 42 80
10 0 18 5 18 10 0 6 11 10 25 10 14 0 25 -4 25 -10z m2240 -159 c0 -56 4 -103
10 -106 6 -4 10 -73 10 -176 l0 -169 -90 0 -90 0 0 140 c0 87 4 140 10 140 15
0 12 57 -2 64 -10 5 -10 7 0 12 8 4 12 33 12 93 0 48 3 91 7 94 3 4 35 7 70 7
l63 0 0 -99z m-2124 -196 c44 -8 126 -15 182 -16 56 -1 102 -5 102 -10 0 -5
61 -9 135 -9 83 0 135 -4 135 -10 0 -6 32 -10 75 -10 l75 0 0 -88 c0 -93 -11
-114 -55 -105 -71 14 -162 22 -237 23 -48 0 -89 4 -92 9 -3 4 -112 11 -242 15
-178 6 -240 11 -250 21 -17 16 -20 165 -4 165 6 0 10 7 10 15 0 19 57 20 166
0z"/>
<path d="M8850 10615 c0 -24 2 -25 61 -25 57 0 60 1 57 23 -3 19 -10 22 -60
25 -56 3 -58 2 -58 -23z"/>
<path d="M7900 10185 c0 -8 -4 -15 -10 -15 -5 0 -10 -13 -10 -30 l0 -30 111 0
112 0 -7 31 c-3 17 -6 38 -6 45 0 11 -21 14 -95 14 -78 0 -95 -3 -95 -15z"/>
<path d="M3750 10140 c0 -5 5 -10 10 -10 6 0 10 5 10 10 0 6 -4 10 -10 10 -5
0 -10 -4 -10 -10z"/>
<path d="M5961 10086 c7 -7 279 -10 286 -3 3 4 -60 7 -142 7 -82 0 -146 -2
-144 -4z"/>
<path d="M5863 10073 c15 -2 37 -2 50 0 12 2 0 4 -28 4 -27 0 -38 -2 -22 -4z"/>
<path d="M5585 10059 c-341 -32 -720 -92 -790 -125 l-30 -14 30 5 c17 2 62 11
100 19 39 9 84 15 100 15 17 0 -21 -11 -83 -24 -138 -28 -151 -33 -133 -44 11
-7 8 -13 -12 -26 -14 -9 -31 -14 -37 -10 -6 4 -18 1 -26 -6 -12 -10 -17 -10
-27 1 -10 10 -9 12 5 7 9 -3 22 1 29 9 11 13 8 14 -17 9 -71 -17 -102 -27
-144 -51 -25 -13 -34 -21 -20 -18 14 4 35 7 48 6 13 -1 21 2 18 6 -2 4 3 8 12
9 9 0 37 4 62 7 25 4 54 7 65 7 11 0 30 6 42 14 12 8 29 15 38 15 8 0 15 4 15
10 0 8 19 16 60 25 28 7 82 16 112 19 21 3 41 7 46 10 5 3 44 8 88 11 44 3 89
7 99 9 11 2 91 7 178 11 92 4 157 12 157 17 0 6 -17 8 -42 5 -24 -4 -90 -8
-148 -11 l-105 -5 130 15 c72 8 176 15 233 15 56 1 102 4 102 9 0 4 10 8 23 8
12 0 51 5 87 11 36 6 128 11 205 12 137 2 138 2 52 9 -49 4 -105 6 -125 5 -20
-2 -86 -6 -145 -10 -59 -4 -145 -8 -190 -10 -45 -1 -120 -5 -167 -8 -64 -5
-73 -4 -38 2 26 5 123 15 215 21 92 7 170 14 172 16 7 6 -146 2 -244 -7z
m-310 -60 c16 -7 13 -8 -12 -5 -18 2 -33 1 -33 -4 0 -8 -189 -35 -196 -27 -3
2 37 10 88 16 51 7 97 16 103 22 11 11 23 11 50 -2z m118 4 c-13 -2 -35 -2
-50 0 -16 2 -5 4 22 4 28 0 40 -2 28 -4z"/>
<path d="M6320 10059 c-59 -4 -45 -6 65 -6 139 -1 170 3 65 9 -30 2 -89 0
-130 -3z"/>
<path d="M3480 10050 c0 -5 5 -10 10 -10 6 0 10 5 10 10 0 6 -4 10 -10 10 -5
0 -10 -4 -10 -10z"/>
<path d="M6206 10051 c-4 -5 3 -7 14 -4 23 6 26 13 6 13 -8 0 -17 -4 -20 -9z"/>
<path d="M3390 10030 c0 -5 5 -10 10 -10 6 0 10 5 10 10 0 6 -4 10 -10 10 -5
0 -10 -4 -10 -10z"/>
<path d="M8468 10012 c-18 -4 -26 -42 -9 -42 5 0 11 -10 13 -22 2 -18 12 -24
48 -30 25 -5 55 -6 68 -3 19 5 22 12 22 56 l0 50 -62 -3 c-35 -1 -71 -3 -80
-6z"/>
<path d="M6213 10003 c15 -2 39 -2 55 0 15 2 2 4 -28 4 -30 0 -43 -2 -27 -4z"/>
<path d="M6243 9973 c15 -2 37 -2 50 0 12 2 0 4 -28 4 -27 0 -38 -2 -22 -4z"/>
<path d="M6328 9973 c7 -3 16 -2 19 1 4 3 -2 6 -13 5 -11 0 -14 -3 -6 -6z"/>
<path d="M5585 9960 l-30 -8 35 0 c19 -1 53 3 75 7 l40 9 -45 0 c-25 0 -58 -4
-75 -8z"/>
<path d="M5515 9950 c-19 -8 -19 -9 3 -9 12 -1 22 4 22 9 0 6 -1 10 -2 9 -2 0
-12 -4 -23 -9z"/>
<path d="M3130 9940 c0 -5 5 -10 10 -10 6 0 10 5 10 10 0 6 -4 10 -10 10 -5 0
-10 -4 -10 -10z"/>
<path d="M5428 9933 c7 -3 16 -2 19 1 4 3 -2 6 -13 5 -11 0 -14 -3 -6 -6z"/>
<path d="M5333 9923 c9 -2 25 -2 35 0 9 3 1 5 -18 5 -19 0 -27 -2 -17 -5z"/>
<path d="M5087 9914 c-3 -3 -33 -7 -66 -8 -35 0 -60 -5 -59 -11 2 -5 12 -9 23
-8 64 5 161 31 124 32 -9 1 -18 -2 -22 -5z"/>
<path d="M5263 9913 c9 -2 23 -2 30 0 6 3 -1 5 -18 5 -16 0 -22 -2 -12 -5z"/>
<path d="M5193 9903 c9 -2 25 -2 35 0 9 3 1 5 -18 5 -19 0 -27 -2 -17 -5z"/>
<path d="M4927 9893 c-10 -9 -9 -23 1 -23 5 0 9 7 9 15 0 17 -1 18 -10 8z"/>
<path d="M5133 9893 c9 -2 23 -2 30 0 6 3 -1 5 -18 5 -16 0 -22 -2 -12 -5z"/>
<path d="M4574 9866 c-43 -14 -97 -46 -77 -46 7 0 14 4 17 9 3 4 26 14 51 21
25 7 48 17 51 21 3 5 4 9 2 8 -2 0 -22 -6 -44 -13z"/>
<path d="M4850 9876 c0 -2 7 -7 16 -10 8 -3 12 -2 9 4 -6 10 -25 14 -25 6z"/>
<path d="M5568 9853 c7 -3 16 -2 19 1 4 3 -2 6 -13 5 -11 0 -14 -3 -6 -6z"/>
<path d="M5618 9853 c12 -2 32 -2 45 0 12 2 2 4 -23 4 -25 0 -35 -2 -22 -4z"/>
<path d="M4988 9793 c6 -2 18 -2 25 0 6 3 1 5 -13 5 -14 0 -19 -2 -12 -5z"/>
<path d="M4908 9783 c7 -3 16 -2 19 1 4 3 -2 6 -13 5 -11 0 -14 -3 -6 -6z"/>
<path d="M8850 9690 c0 -5 5 -10 10 -10 6 0 10 5 10 10 0 6 -4 10 -10 10 -5 0
-10 -4 -10 -10z"/>
<path d="M4345 9570 c-3 -6 1 -7 9 -4 18 7 21 14 7 14 -6 0 -13 -4 -16 -10z"/>
<path d="M7590 9500 c0 -5 -11 -10 -25 -10 -24 0 -25 -2 -25 -70 l0 -70 135 0
135 0 0 70 c0 68 -1 70 -25 70 -14 0 -25 5 -25 10 0 6 -35 10 -85 10 -50 0
-85 -4 -85 -10z"/>
<path d="M7858 9266 c-2 -21 -2 -51 0 -67 4 -25 6 -27 16 -15 8 12 38 16 126
18 112 3 115 4 118 26 6 41 -22 51 -140 52 -76 0 -108 4 -111 13 -2 6 -6 -5
-9 -27z"/>
<path d="M5373 9173 c9 -2 25 -2 35 0 9 3 1 5 -18 5 -19 0 -27 -2 -17 -5z"/>
<path d="M6495 8990 c-22 -3 -57 -14 -79 -23 -21 -9 -56 -17 -77 -17 -36 0
-39 -2 -39 -29 0 -17 6 -31 16 -35 9 -3 123 -6 255 -6 206 0 239 2 239 15 0 8
6 15 14 15 21 0 29 33 15 64 -15 31 -49 36 -49 6 0 -11 -4 -20 -10 -20 -5 0
-10 9 -10 20 0 15 -7 20 -25 20 -16 0 -25 -6 -25 -15 0 -10 -10 -15 -30 -15
-18 0 -33 6 -36 15 -4 8 -15 15 -25 15 -10 0 -19 -7 -19 -15 0 -8 -9 -15 -19
-15 -11 0 -26 7 -35 15 -8 8 -16 14 -18 14 -2 -1 -21 -5 -43 -9z"/>
<path d="M3180 8790 c-12 -8 -9 -10 13 -10 15 0 27 5 27 10 0 13 -20 13 -40 0z"/>
<path d="M4248 8772 c-33 -9 -58 -22 -58 -29 0 -7 -4 -13 -10 -13 -5 0 -10 -9
-10 -20 0 -11 5 -20 10 -20 6 0 10 -9 10 -20 0 -20 7 -20 437 -20 340 0 434 3
425 12 -7 7 -12 20 -12 30 0 12 -8 18 -22 18 -16 0 -28 11 -39 32 -8 17 -22
33 -30 36 -11 3 -11 2 1 -7 13 -9 12 -11 -6 -11 -11 0 -24 4 -30 9 -11 12
-104 -6 -104 -20 0 -5 -13 -9 -30 -9 -16 0 -30 4 -30 9 0 5 -17 11 -37 14 -21
3 -64 11 -96 18 -42 9 -69 10 -103 2 -29 -7 -58 -7 -78 -2 -44 13 -122 9 -188
-9z"/>
<path d="M5841 8766 c10 -9 139 -15 134 -6 -3 6 -36 10 -72 10 -37 0 -64 -2
-62 -4z"/>
<path d="M6057 8733 c-15 -15 -5 -23 28 -23 24 0 35 5 35 15 0 15 -50 22 -63
8z"/>
<path d="M6549 8723 c-9 -58 -10 -58 84 -61 l87 -3 0 36 0 35 -85 0 c-47 0
-86 -3 -86 -7z"/>
<path d="M5775 8680 c-3 -5 -1 -10 4 -10 6 0 11 5 11 10 0 6 -2 10 -4 10 -3 0
-8 -4 -11 -10z"/>
<path d="M6050 8683 c1 -35 62 -44 68 -10 3 14 -4 17 -32 17 -20 0 -36 -3 -36
-7z"/>
<path d="M6040 8609 c0 -5 5 -7 10 -4 6 3 10 8 10 11 0 2 -4 4 -10 4 -5 0 -10
-5 -10 -11z"/>
<path d="M9250 8590 c0 -5 5 -10 10 -10 6 0 10 5 10 10 0 6 -4 10 -10 10 -5 0
-10 -4 -10 -10z"/>
<path d="M4480 8346 c0 -12 -10 -16 -39 -16 -31 0 -41 -4 -46 -20 -5 -16 -15
-20 -51 -20 -24 0 -44 5 -44 10 0 6 -37 10 -90 10 l-90 0 0 -26 c0 -20 -4 -25
-16 -20 -9 3 -22 6 -30 6 -8 0 -14 9 -14 20 0 11 -4 20 -10 20 -5 0 -10 -9
-10 -20 0 -17 -7 -20 -45 -20 -51 0 -56 -10 -20 -46 14 -14 25 -36 25 -49 l0
-25 514 0 513 0 19 25 c10 14 26 25 35 25 18 0 33 26 23 41 -3 5 -34 9 -70 9
-36 0 -64 4 -64 10 0 6 -7 10 -15 10 -8 0 -15 5 -15 11 0 6 7 9 15 5 9 -3 15
0 15 9 0 10 -11 15 -35 15 -19 0 -35 -4 -35 -10 0 -5 -20 -10 -45 -10 -25 0
-45 4 -45 10 0 16 -53 8 -70 -11 -8 -9 -33 -19 -55 -23 -98 -17 -115 -18 -115
-8 0 6 -10 12 -22 14 -12 2 -23 8 -25 14 -2 7 17 9 57 6 40 -3 60 -1 60 7 0 6
19 11 46 11 41 0 45 2 42 23 -4 28 -49 35 -83 13 -28 -18 -72 -21 -77 -5 -2 5
-22 13 -46 16 -34 5 -42 3 -42 -11z m18 -54 c-10 -2 -18 -9 -18 -17 0 -7 -7
-16 -16 -19 -18 -7 -64 -8 -64 -2 0 2 -3 11 -6 20 -5 13 2 16 39 16 25 0 49 5
52 10 4 6 12 7 18 3 8 -5 7 -9 -5 -11z"/>
<path d="M5060 8340 c0 -5 5 -10 10 -10 6 0 10 5 10 10 0 6 -4 10 -10 10 -5 0
-10 -4 -10 -10z"/>
<path d="M8300 7970 c0 -5 5 -10 10 -10 6 0 10 5 10 10 0 6 -4 10 -10 10 -5 0
-10 -4 -10 -10z"/>
<path d="M8500 7970 c0 -5 9 -10 20 -10 11 0 20 5 20 10 0 6 -9 10 -20 10 -11
0 -20 -4 -20 -10z"/>
<path d="M4060 7660 l0 -30 -65 0 c-63 0 -65 -1 -65 -25 0 -24 -3 -25 -54 -25
-68 0 -86 7 -86 32 0 17 -6 19 -52 16 -46 -3 -53 -6 -56 -25 -3 -22 -7 -23
-103 -23 -59 0 -99 4 -99 10 0 6 -53 10 -140 10 -87 0 -140 -4 -140 -10 0 -5
5 -10 10 -10 6 0 10 -9 10 -20 0 -11 5 -20 10 -20 6 0 10 -7 10 -15 0 -8 5
-15 10 -15 6 0 10 -9 10 -20 0 -11 5 -20 10 -20 6 0 10 -7 10 -15 0 -8 -4 -15
-10 -15 -5 0 -10 -4 -10 -10 0 -7 221 -10 643 -10 l643 0 0 55 1 55 -126 1
c-69 0 -175 0 -236 -1 -103 -1 -111 0 -129 21 -13 15 -15 24 -8 27 7 2 12 15
12 28 0 23 2 24 80 24 64 0 80 -3 80 -15 0 -8 -7 -15 -15 -15 -8 0 -15 -4 -15
-10 0 -5 16 -10 35 -10 27 0 35 4 35 18 1 16 1 16 14 0 20 -28 26 -22 26 27 0
46 -7 54 -28 33 -9 -9 -12 -9 -12 1 0 10 -9 11 -35 7 -28 -6 -35 -4 -35 9 0
12 -13 15 -65 15 l-65 0 0 -30z m-50 -95 c0 -2 -9 -3 -19 -2 -11 0 -18 5 -15
9 4 6 34 0 34 -7z"/>
<path d="M3820 7660 c0 -5 15 -10 34 -10 19 0 38 5 41 10 4 6 -10 10 -34 10
-23 0 -41 -4 -41 -10z"/>
<path d="M4500 7641 c0 -10 40 -19 58 -13 25 8 11 22 -23 22 -19 0 -35 -4 -35
-9z"/>
<path d="M4500 7590 c0 -5 16 -10 35 -10 19 0 35 5 35 10 0 6 -16 10 -35 10
-19 0 -35 -4 -35 -10z"/>
<path d="M2820 7354 c0 -7 27 -34 34 -34 13 0 5 16 -14 28 -11 7 -20 10 -20 6z"/>
<path d="M4400 7110 c0 -69 -1 -70 -26 -70 -21 0 -23 -2 -12 -13 28 -27 63
-36 83 -21 10 8 13 14 7 14 -8 0 -12 20 -12 59 0 38 -4 61 -12 64 -10 4 -10 6
0 6 21 2 13 31 -8 31 -18 0 -20 -7 -20 -70z"/>
<path d="M4152 7120 c0 -3 0 -35 -1 -72 -1 -53 -4 -68 -16 -68 -8 0 -15 5 -15
10 0 6 -4 10 -10 10 -5 0 -10 -9 -10 -20 0 -13 7 -20 20 -20 11 0 20 -4 20
-10 0 -23 62 -10 92 20 20 20 25 30 14 30 -8 0 -18 -4 -21 -10 -3 -5 -13 -10
-21 -10 -11 0 -14 16 -14 74 0 68 -2 75 -19 73 -11 0 -19 -4 -19 -7z"/>
<path d="M3012 7026 c7 -8 15 -12 17 -11 5 6 -10 25 -20 25 -5 0 -4 -6 3 -14z"/>
<path d="M3884 6988 c2 -24 7 -57 11 -75 7 -29 5 -31 -14 -26 -24 6 -27 -2 -7
-23 22 -22 64 -17 93 12 14 14 22 28 18 32 -4 4 -10 1 -12 -5 -3 -7 -13 -13
-24 -13 -14 0 -19 7 -19 25 0 14 5 25 10 25 18 0 11 49 -10 70 -34 34 -50 26
-46 -22z"/>
<path d="M3669 6982 c-1 -12 -3 -26 -4 -32 -1 -5 -3 -38 -4 -72 -1 -56 -2 -60
-15 -42 -8 10 -17 16 -21 12 -4 -4 2 -17 14 -29 12 -13 21 -26 21 -31 0 -4 7
-8 16 -8 8 0 12 5 9 10 -4 6 5 10 19 10 14 0 26 4 26 9 0 5 3 18 6 28 5 15 4
15 -5 3 -15 -22 -24 -5 -23 47 0 33 -5 51 -16 60 -16 12 -16 13 1 7 22 -8 22
-2 -3 26 l-20 23 -1 -21z"/>
<path d="M4463 6990 c-13 -5 -23 -14 -23 -20 0 -5 -8 -10 -18 -10 -22 0 -72
-22 -72 -32 0 -5 5 -8 10 -8 6 0 10 -5 10 -11 0 -16 31 -38 53 -39 27 0 20
-20 -8 -20 -14 0 -25 5 -25 10 0 6 -9 10 -20 10 -28 0 -25 -13 8 -32 27 -16
87 -14 76 3 -3 5 2 9 10 9 9 0 16 5 16 10 0 6 -9 10 -20 10 -11 0 -20 4 -20 8
0 5 9 17 20 27 22 20 26 35 10 35 -5 0 -10 -5 -10 -11 0 -17 -27 -39 -42 -34
-7 3 -19 14 -26 25 -11 19 -10 20 23 20 19 0 35 5 35 10 0 6 6 10 14 10 7 0
16 9 19 20 3 11 4 20 4 19 -1 0 -12 -4 -24 -9z"/>
<path d="M4355 6970 c-3 -5 1 -10 9 -10 8 0 18 5 21 10 3 6 -1 10 -9 10 -8 0
-18 -4 -21 -10z"/>
<path d="M4100 6933 c1 -14 27 -43 39 -43 6 0 11 -4 11 -10 0 -5 9 -10 20 -10
11 0 20 4 20 9 0 5 8 12 18 15 10 4 19 14 19 22 0 14 -2 14 -14 -2 -7 -10 -13
-14 -13 -8 0 5 -5 2 -10 -6 -6 -10 -13 -11 -17 -5 -9 11 -59 45 -68 45 -3 0
-5 -3 -5 -7z"/>
<path d="M3840 6899 c0 -5 5 -7 10 -4 6 3 10 8 10 11 0 2 -4 4 -10 4 -5 0 -10
-5 -10 -11z"/>
<path d="M4100 6860 c0 -5 9 -10 20 -10 11 0 20 5 20 10 0 6 -9 10 -20 10 -11
0 -20 -4 -20 -10z"/>
<path d="M4190 6860 c0 -5 -8 -10 -19 -10 -10 0 -23 -6 -29 -12 -15 -19 46
-16 76 2 29 19 28 30 -3 30 -14 0 -25 -4 -25 -10z"/>
<path d="M3425 6836 c-2 -6 -6 -50 -8 -98 l-5 -88 34 0 c19 0 34 -4 34 -10 0
-5 -21 -10 -46 -10 -27 0 -43 4 -39 10 3 6 1 10 -4 10 -13 0 -14 -10 -2 -29 5
-8 18 -12 30 -8 14 3 21 0 21 -9 0 -8 5 -14 11 -14 6 0 8 7 5 16 -3 8 -2 12 4
9 6 -4 18 1 27 10 13 14 14 18 2 25 -11 7 -9 13 9 28 12 11 22 22 22 26 0 12
-38 6 -43 -6 -10 -28 -17 2 -18 74 -1 59 -4 75 -16 75 -8 0 -16 -5 -18 -11z"/>
<path d="M3845 6840 c-3 -5 1 -10 10 -10 9 0 13 5 10 10 -3 6 -8 10 -10 10 -2
0 -7 -4 -10 -10z"/>
<path d="M3950 6839 c0 -14 -25 -39 -39 -39 -6 0 -11 -4 -11 -10 0 -5 7 -10
15 -10 8 0 15 5 15 10 0 6 9 10 20 10 11 0 20 7 20 15 0 8 5 15 10 15 6 0 10
5 10 10 0 6 -9 10 -20 10 -11 0 -20 -5 -20 -11z"/>
<path d="M4225 6818 c7 -17 -3 -23 -27 -19 -5 0 -8 -3 -8 -9 0 -5 -9 -10 -20
-10 -11 0 -20 3 -20 8 0 10 -41 35 -47 28 -7 -7 23 -36 36 -36 6 0 11 -4 11
-10 0 -5 9 -10 20 -10 11 0 20 5 20 10 0 6 9 10 19 10 23 0 36 29 21 44 -8 8
-9 6 -5 -6z"/>
<path d="M3850 6803 c-10 -12 -11 -18 -2 -21 7 -2 12 -11 12 -20 0 -13 3 -13
12 -4 10 10 10 14 0 21 -7 4 -10 15 -6 24 8 21 3 21 -16 0z"/>
<path d="M3607 6794 c-3 -6 3 -17 14 -24 22 -16 25 -36 7 -43 -19 -7 31 -47
56 -46 19 1 19 2 2 6 -23 6 -51 32 -43 39 3 4 21 8 40 11 37 5 60 -13 36 -28
-7 -4 -10 -11 -6 -15 12 -13 20 5 21 46 1 41 -7 51 -21 25 -9 -15 -53 -10 -53
6 0 5 -9 9 -19 9 -11 0 -21 5 -23 12 -3 8 -7 8 -11 2z"/>
<path d="M3962 6780 c-12 -11 -35 -20 -52 -20 -32 0 -41 -14 -15 -24 20 -7 45
3 74 32 29 29 23 40 -7 12z"/>
<path d="M3840 6724 c0 -3 7 -12 15 -21 20 -19 32 -9 15 12 -12 15 -30 20 -30
9z"/>
<path d="M3941 6709 c-13 -12 -29 -18 -38 -15 -13 5 -14 4 -4 -8 17 -20 71 -1
71 25 0 24 -1 24 -29 -2z"/>
<path d="M3714 6665 c-7 -18 -37 -20 -66 -4 -26 14 -35 4 -15 -16 21 -20 93
-20 101 1 3 9 6 20 6 25 0 15 -20 10 -26 -6z"/>
<path d="M3483 6586 c-13 -7 -20 -16 -16 -19 3 -4 -8 -7 -25 -7 -18 0 -32 5
-32 10 0 6 -6 10 -14 10 -13 0 -13 -6 -7 -77 1 -7 8 -13 17 -13 8 0 12 -4 9
-10 -4 -6 5 -10 19 -10 36 0 32 13 -9 36 -19 10 -35 22 -35 25 0 4 18 9 41 11
31 3 43 0 50 -14 7 -14 6 -18 -6 -18 -9 0 -13 -5 -10 -10 5 -8 11 -7 21 1 17
14 18 35 2 43 -10 5 -10 7 0 12 6 3 12 12 12 19 0 7 6 16 13 18 6 3 8 5 2 5
-5 0 -20 -6 -32 -12z"/>
<path d="M2840 6209 c0 -43 -3 -58 -12 -53 -7 4 -8 3 -4 -4 9 -15 176 -16 176
-2 0 6 -7 10 -15 10 -11 0 -15 12 -15 46 0 43 -1 45 -27 44 -51 -4 -74 0 -68
10 3 6 -3 10 -14 10 -19 0 -21 -6 -21 -61z m118 9 c-6 -18 -28 -21 -28 -4 0 9
7 16 16 16 9 0 14 -5 12 -12z"/>
<path d="M3045 6240 c3 -5 8 -10 11 -10 2 0 4 5 4 10 0 6 -5 10 -11 10 -5 0
-7 -4 -4 -10z"/>
<path d="M4072 5968 c-7 -7 -12 -20 -12 -30 0 -10 -4 -18 -10 -18 -5 0 -10
-13 -10 -29 0 -17 -4 -33 -10 -36 -5 -3 -10 -15 -10 -26 0 -10 -4 -19 -9 -19
-5 0 -12 -11 -15 -25 -4 -14 -11 -25 -16 -25 -6 0 -10 -9 -10 -20 0 -11 -4
-20 -10 -20 -5 0 -10 -25 -10 -55 0 -49 2 -55 20 -55 12 0 34 14 50 30 16 17
39 30 51 30 21 0 59 -34 59 -52 0 -4 14 -8 30 -8 23 0 30 4 30 20 0 19 7 20
115 20 93 0 115 -3 115 -14 0 -8 5 -18 11 -21 12 -8 49 23 49 42 0 9 13 13 41
13 42 0 69 -17 69 -44 0 -12 10 -16 35 -16 l35 0 0 58 c0 46 -5 62 -25 86 -14
16 -25 35 -25 43 0 7 -4 13 -10 13 -5 0 -10 14 -10 30 0 17 -4 30 -10 30 -5 0
-10 11 -10 25 0 14 -4 25 -8 25 -4 0 -13 14 -19 30 l-11 30 -224 0 c-161 0
-227 -3 -236 -12z m428 -13 c0 -8 5 -15 10 -15 6 0 10 -10 10 -22 0 -13 7 -36
15 -52 8 -15 15 -30 15 -32 0 -2 -110 -4 -245 -4 -157 0 -245 4 -245 10 0 6 4
10 8 10 4 0 14 27 21 60 l13 60 199 0 c170 0 199 -2 199 -15z"/>
<path d="M6640 9710 c0 -5 5 -10 11 -10 5 0 7 5 4 10 -3 6 -8 10 -11 10 -2 0
-4 -4 -4 -10z"/>
<path d="M6207 9709 c8 -16 18 -28 21 -25 7 7 -18 56 -29 56 -4 0 -1 -14 8
-31z"/>
<path d="M8920 7445 c0 -14 5 -25 10 -25 6 0 10 11 10 25 0 14 -4 25 -10 25
-5 0 -10 -11 -10 -25z"/>
<path d="M9195 7460 c-6 -9 17 -40 29 -40 3 0 6 11 6 25 0 25 -23 35 -35 15z"/>
<path d="M5982 7240 l-21 -60 44 0 c27 0 45 5 45 11 0 17 -34 109 -40 109 -3
0 -16 -27 -28 -60z"/>
<path d="M7146 7224 c-35 -35 -11 -94 38 -94 44 0 61 68 24 94 -28 20 -43 20
-62 0z"/>
<path d="M4960 6635 l0 -75 64 0 c80 0 125 15 137 47 14 37 11 52 -16 78 -22
22 -32 25 -105 25 l-80 0 0 -75z"/>
<path d="M4960 6370 l0 -80 81 0 c80 0 113 9 136 39 20 26 15 70 -12 96 -22
23 -32 25 -115 25 l-90 0 0 -80z"/>
<path d="M6140 6619 l0 -91 76 4 c69 3 79 6 100 31 15 17 24 40 24 60 -1 62
-40 87 -134 87 l-66 0 0 -91z"/>
<path d="M7755 6689 c-122 -33 -151 -293 -43 -384 22 -19 41 -25 75 -25 39 0
50 5 77 34 39 40 56 94 56 172 0 77 -13 122 -47 162 -32 37 -75 52 -118 41z"/>
<path d="M6927 6510 c-37 -55 -67 -102 -67 -105 0 -3 32 -5 70 -5 l70 0 0 105
c0 58 -2 105 -3 105 -2 0 -34 -45 -70 -100z"/>
<path d="M9090 6230 c0 -11 4 -28 9 -38 6 -9 12 -29 16 -44 8 -42 25 -34 25
12 0 27 -5 43 -15 46 -8 4 -15 15 -15 25 0 10 -4 19 -10 19 -5 0 -10 -9 -10
-20z"/>
<path d="M9320 6230 c0 -13 7 -20 20 -20 13 0 20 7 20 20 0 13 -7 20 -20 20
-13 0 -20 -7 -20 -20z"/>
<path d="M9693 6234 c-3 -8 -1 -20 4 -25 14 -14 43 0 43 22 0 24 -38 26 -47 3z"/>
<path d="M9914 6205 c-3 -14 -10 -25 -15 -25 -5 0 -9 -13 -9 -30 0 -23 5 -30
19 -30 23 0 31 19 31 71 0 44 -16 53 -26 14z"/>
<path d="M2580 5940 c0 -13 28 -25 38 -16 3 4 0 11 -8 16 -20 13 -30 12 -30 0z"/>
<path d="M2840 5885 c0 -33 -4 -55 -11 -55 -7 0 -10 -23 -7 -67 2 -47 -1 -68
-9 -70 -9 -3 -13 -25 -13 -64 0 -44 -4 -61 -15 -65 -11 -4 -15 -21 -15 -56 0
-30 -4 -47 -10 -43 -6 4 -10 -10 -10 -34 0 -23 -4 -41 -10 -41 -5 0 -10 -10
-10 -22 -1 -13 -7 -34 -15 -48 -29 -50 -31 -50 210 -50 197 0 225 2 225 16 0
8 -4 12 -10 9 -6 -3 -10 5 -10 19 0 13 -7 31 -15 40 -8 8 -15 26 -15 41 0 27
-14 47 -40 58 -12 4 -11 6 3 6 12 1 17 9 17 31 0 17 -5 30 -12 30 -9 0 -12 16
-10 55 3 37 0 55 -8 55 -6 0 -9 4 -6 9 4 5 2 11 -4 13 -5 1 -13 67 -16 146
l-7 142 -89 0 -88 0 0 -55z m133 28 c-7 -2 -19 -2 -25 0 -7 3 -2 5 12 5 14 0
19 -2 13 -5z m37 -21 c0 -5 -7 -9 -15 -9 -8 0 -15 4 -15 9 0 4 7 8 15 8 8 0
15 -4 15 -8z m-137 -79 c-7 -2 -19 -2 -25 0 -7 3 -2 5 12 5 14 0 19 -2 13 -5z
m124 -45 c-3 -8 -6 -5 -6 6 -1 11 2 17 5 13 3 -3 4 -12 1 -19z m-37 -18 c0 -5
-4 -10 -10 -10 -5 0 -10 5 -10 10 0 6 5 10 10 10 6 0 10 -4 10 -10z m17 -22
c-3 -7 -5 -2 -5 12 0 14 2 19 5 13 2 -7 2 -19 0 -25z m30 -20 c-3 -8 -6 -5 -6
6 -1 11 2 17 5 13 3 -3 4 -12 1 -19z m-22 -28 c3 -5 -1 -10 -9 -10 -9 0 -16 5
-16 10 0 6 4 10 9 10 6 0 13 -4 16 -10z m-70 -20 c-3 -5 -13 -10 -21 -10 -8 0
-14 5 -14 10 0 6 9 10 21 10 11 0 17 -4 14 -10z m85 -20 c0 -5 -9 -10 -20 -10
-11 0 -20 5 -20 10 0 6 9 10 20 10 11 0 20 -4 20 -10z m-140 -20 c0 -5 -4 -10
-10 -10 -5 0 -10 5 -10 10 0 6 5 10 10 10 6 0 10 -4 10 -10z m98 -42 c-6 -18
-28 -21 -28 -4 0 9 7 16 16 16 9 0 14 -5 12 -12z m-48 -23 c0 -8 -7 -15 -15
-15 -8 0 -15 7 -15 15 0 8 7 15 15 15 8 0 15 -7 15 -15z m85 5 c3 -5 1 -10 -4
-10 -6 0 -11 5 -11 10 0 6 2 10 4 10 3 0 8 -4 11 -10z m-40 -30 c3 -5 -1 -10
-9 -10 -9 0 -16 5 -16 10 0 6 4 10 9 10 6 0 13 -4 16 -10z m85 0 c0 -5 -7 -10
-16 -10 -8 0 -12 5 -9 10 3 6 10 10 16 10 5 0 9 -4 9 -10z m-245 -39 c-3 -5 2
-16 10 -24 17 -18 20 -40 4 -35 -6 2 -9 6 -8 8 1 3 -3 15 -9 26 -6 12 -8 24
-5 28 9 9 15 7 8 -3z m218 -16 c10 -14 13 -26 7 -30 -5 -3 -10 0 -10 8 0 8 -9
17 -20 20 -11 3 -20 10 -20 16 0 19 24 11 43 -14z m-83 -20 c0 -14 -4 -25 -10
-25 -11 0 -14 33 -3 43 11 11 13 8 13 -18z m-75 -4 c3 -5 1 -12 -5 -16 -5 -3
-10 1 -10 9 0 18 6 21 15 7z m130 -11 c3 -5 -3 -10 -14 -10 -12 0 -21 5 -21
10 0 6 6 10 14 10 8 0 18 -4 21 -10z m-198 -32 c2 -17 0 -19 -7 -8 -5 8 -6 18
-4 22 8 12 10 10 11 -14z m93 -8 c0 -5 -5 -10 -11 -10 -5 0 -7 5 -4 10 3 6 8
10 11 10 2 0 4 -4 4 -10z m193 -5 c-3 -9 -8 -14 -10 -11 -3 3 -2 9 2 15 9 16
15 13 8 -4z m-240 -22 c-7 -2 -21 -2 -30 0 -10 3 -4 5 12 5 17 0 24 -2 18 -5z
m157 -27 c0 -4 -9 -1 -19 6 -11 7 -17 16 -15 20 5 8 34 -15 34 -26z"/>
<path d="M3260 5510 c0 -5 5 -10 10 -10 6 0 10 5 10 10 0 6 -4 10 -10 10 -5 0
-10 -4 -10 -10z"/>
<path d="M7900 5400 c0 -5 5 -10 10 -10 6 0 10 5 10 10 0 6 -4 10 -10 10 -5 0
-10 -4 -10 -10z"/>
<path d="M7976 5353 c-6 -14 -5 -15 5 -6 7 7 10 15 7 18 -3 3 -9 -2 -12 -12z"/>
<path d="M3310 5350 c0 -5 5 -10 10 -10 6 0 10 5 10 10 0 6 -4 10 -10 10 -5 0
-10 -4 -10 -10z"/>
<path d="M8088 5263 c6 -2 18 -2 25 0 6 3 1 5 -13 5 -14 0 -19 -2 -12 -5z"/>
<path d="M5020 5180 c0 -5 15 -10 33 -10 24 0 28 3 17 10 -20 13 -50 13 -50 0z"/>
<path d="M8551 5053 c7 -10 14 -20 16 -22 1 -1 6 0 12 3 16 10 1 36 -21 36
-18 0 -19 -2 -7 -17z"/>
<path d="M2830 4930 c0 -6 38 -10 95 -10 57 0 95 4 95 10 0 6 -38 10 -95 10
-57 0 -95 -4 -95 -10z"/>
<path d="M3145 4890 c3 -5 10 -10 16 -10 5 0 9 5 9 10 0 6 -7 10 -16 10 -8 0
-12 -4 -9 -10z"/>
<path d="M3190 4870 c0 -5 7 -10 15 -10 8 0 15 5 15 10 0 6 -7 10 -15 10 -8 0
-15 -4 -15 -10z"/>
<path d="M3247 4853 c-4 -3 -7 -11 -7 -17 0 -6 5 -5 12 2 6 6 9 14 7 17 -3 3
-9 2 -12 -2z"/>
<path d="M3270 4818 c0 -4 7 -8 15 -8 8 0 15 4 15 8 0 5 -7 9 -15 9 -8 0 -15
-4 -15 -9z"/>
<path d="M3310 4800 c0 -5 5 -10 10 -10 6 0 10 5 10 10 0 6 -4 10 -10 10 -5 0
-10 -4 -10 -10z"/>
<path d="M6080 4594 c0 -8 5 -12 10 -9 6 4 8 11 5 16 -9 14 -15 11 -15 -7z"/>
<path d="M6130 4593 c0 -7 7 -10 15 -6 9 3 22 -2 30 -13 14 -18 14 -18 15 7 0
23 -4 26 -30 25 -16 -1 -30 -6 -30 -13z"/>
<path d="M6137 4552 c-9 -10 -12 -25 -8 -36 7 -17 8 -18 14 -3 8 21 27 22 27
2 0 -8 5 -15 10 -15 18 0 11 45 -9 57 -15 10 -22 9 -34 -5z"/>
<path d="M7593 4520 c1 -11 5 -20 9 -20 4 0 8 9 8 20 0 11 -4 20 -9 20 -6 0
-9 -9 -8 -20z"/>
<path d="M7590 4460 c0 -16 5 -30 10 -30 6 0 10 14 10 30 0 17 -4 30 -10 30
-5 0 -10 -13 -10 -30z"/>
<path d="M6195 4471 c-3 -5 -2 -12 3 -15 5 -3 9 1 9 9 0 17 -3 19 -12 6z"/>
<path d="M6084 4458 c3 -10 -2 -22 -12 -27 -9 -6 -12 -11 -6 -11 5 0 16 6 23
13 11 10 13 9 9 -3 -4 -11 1 -16 14 -17 11 -1 18 1 14 4 -3 3 -1 13 4 23 8 14
5 17 -13 16 -12 -1 -26 3 -30 9 -5 6 -7 3 -3 -7z"/>
<path d="M5715 4440 c-3 -5 -21 -10 -40 -10 -41 0 -45 -10 -45 -106 0 -43 -4
-74 -10 -74 -6 0 -10 -55 -10 -145 0 -90 -4 -145 -10 -145 -6 0 -10 -51 -10
-134 0 -79 -4 -137 -10 -141 -6 -3 -10 -49 -10 -103 0 -53 -7 -132 -15 -175
-8 -43 -15 -123 -15 -178 0 -59 -4 -99 -10 -99 -5 0 -10 -11 -10 -25 0 -30 7
-31 40 -8 35 24 50 40 50 53 0 6 11 22 25 36 14 14 23 29 20 34 -2 4 2 13 10
20 9 7 15 29 15 51 0 22 4 39 9 39 6 0 12 57 15 128 6 154 21 349 35 457 15
120 13 217 -4 239 -30 39 -15 236 17 236 5 0 15 6 22 13 11 11 11 17 1 30 -13
19 -50 23 -60 7z"/>
<path d="M6065 4400 c3 -5 8 -10 11 -10 2 0 4 5 4 10 0 6 -5 10 -11 10 -5 0
-7 -4 -4 -10z"/>
<path d="M7590 4400 c0 -5 5 -10 10 -10 6 0 10 5 10 10 0 6 -4 10 -10 10 -5 0
-10 -4 -10 -10z"/>
<path d="M6105 4310 c-3 -5 -1 -10 4 -10 6 0 11 5 11 10 0 6 -2 10 -4 10 -3 0
-8 -4 -11 -10z"/>
<path d="M6170 4240 c0 -5 18 -10 40 -10 22 0 40 5 40 10 0 6 -18 10 -40 10
-22 0 -40 -4 -40 -10z"/>
<path d="M4660 4640 c0 -5 5 -10 10 -10 6 0 10 5 10 10 0 6 -4 10 -10 10 -5 0
-10 -4 -10 -10z"/>
<path d="M4640 4601 c0 -5 -3 -16 -6 -25 -4 -11 -1 -16 10 -16 18 0 22 35 6
45 -5 3 -10 2 -10 -4z"/>
<path d="M4686 4601 c-3 -5 1 -12 10 -15 25 -10 34 -7 34 9 0 16 -35 21 -44 6z"/>
<path d="M4640 4400 c0 -5 5 -10 10 -10 6 0 10 5 10 10 0 6 -4 10 -10 10 -5 0
-10 -4 -10 -10z"/>
<path d="M4675 4400 c3 -5 10 -10 16 -10 5 0 9 5 9 10 0 6 -7 10 -16 10 -8 0
-12 -4 -9 -10z"/>
<path d="M4680 4350 c0 -13 5 -20 13 -17 6 2 12 10 12 17 0 7 -6 15 -12 18 -8
2 -13 -5 -13 -18z"/>
<path d="M7438 4193 c7 -3 16 -2 19 1 4 3 -2 6 -13 5 -11 0 -14 -3 -6 -6z"/>
<path d="M7430 4151 c0 -17 -4 -31 -10 -31 -5 0 -10 -4 -10 -10 0 -5 9 -10 20
-10 16 0 20 7 20 34 0 19 -4 38 -10 41 -6 4 -10 -7 -10 -24z"/>
<path d="M4934 3806 c-17 -16 -20 -26 -13 -44 12 -31 32 -36 66 -18 15 8 21
15 13 16 -13 0 -13 1 0 11 11 8 12 12 3 16 -7 2 -13 11 -13 18 0 22 -34 23
-56 1z"/>
<path d="M4918 3652 c-10 -2 -18 -12 -18 -23 0 -10 -4 -19 -10 -19 -5 0 -10
-13 -10 -30 0 -16 -4 -30 -9 -30 -5 0 -12 -11 -15 -25 -4 -14 -11 -25 -16 -25
-6 0 -10 -9 -10 -20 0 -14 7 -20 23 -20 12 0 29 9 37 20 8 11 25 20 37 20 16
0 23 -6 23 -20 0 -16 7 -20 30 -20 23 0 30 4 30 20 0 11 -4 20 -10 20 -5 0
-10 20 -10 45 0 25 -4 45 -10 45 -5 0 -10 13 -10 29 0 30 -18 41 -52 33z m25
-108 c-4 -10 -9 -12 -15 -6 -12 12 -1 35 12 27 5 -3 6 -13 3 -21z"/>
<path d="M5060 3620 c0 -5 5 -10 10 -10 6 0 10 -9 10 -19 0 -11 4 -21 9 -23 4
-1 12 -13 15 -25 6 -17 3 -23 -8 -23 -9 0 -16 -7 -16 -15 0 -8 -4 -15 -10 -15
-5 0 -10 -7 -10 -15 0 -10 10 -15 29 -15 16 0 31 6 35 15 8 23 23 18 30 -10 5
-18 13 -25 31 -25 31 0 34 29 5 50 -20 15 -28 60 -10 60 6 0 10 8 10 18 0 10
9 24 20 32 28 20 25 30 -9 30 -21 0 -32 -6 -36 -20 -3 -11 -13 -20 -21 -20 -8
0 -14 9 -14 20 0 16 -7 20 -35 20 -19 0 -35 -4 -35 -10z"/>
</g>
</svg>
